<svg xmlns="http://www.w3.org/2000/svg" xmlns:xlink="http://www.w3.org/1999/xlink" width="262" zoomAndPan="magnify" viewBox="0 0 196.5 42" height="56" preserveAspectRatio="xMidYMid meet" version="1.0"><defs><g/><clipPath id="ac8f0a4677"><path d="M 2.039062 8 L 26 8 L 26 34 L 2.039062 34 Z M 2.039062 8 " clip-rule="nonzero"/></clipPath><clipPath id="8e95ba43e3"><path d="M 29 14 L 48 14 L 48 41.023438 L 29 41.023438 Z M 29 14 " clip-rule="nonzero"/></clipPath><clipPath id="191c0abd92"><path d="M 51 14 L 70 14 L 70 41.023438 L 51 41.023438 Z M 51 14 " clip-rule="nonzero"/></clipPath></defs><g clip-path="url(#ac8f0a4677)"><g fill="#ffffff" fill-opacity="1"><g transform="translate(2.040697, 33.869123)"><g><path d="M 23.90625 0 L 18.734375 0 L 16.859375 -5.75 L 7.3125 -5.75 L 5.4375 0 L 0.375 0 L 8.984375 -24.921875 L 15.3125 -24.921875 Z M 11.84375 -19.71875 L 8.640625 -9.890625 L 15.5 -9.890625 L 12.265625 -19.71875 Z M 11.84375 -19.71875 "/></g></g></g></g><g clip-path="url(#8e95ba43e3)"><g fill="#ffffff" fill-opacity="1"><g transform="translate(26.32382, 33.869123)"><g><path d="M 2.703125 7.625 L 2.703125 -18.796875 L 7.4375 -18.796875 L 7.4375 -16.34375 L 7.796875 -16.28125 C 8.347656 -17.226562 9.085938 -17.941406 10.015625 -18.421875 C 10.953125 -18.910156 12.046875 -19.15625 13.296875 -19.15625 C 14.804688 -19.15625 16.125 -18.796875 17.25 -18.078125 C 18.382812 -17.367188 19.265625 -16.28125 19.890625 -14.8125 C 20.523438 -13.351562 20.84375 -11.546875 20.84375 -9.390625 C 20.84375 -7.242188 20.507812 -5.441406 19.84375 -3.984375 C 19.175781 -2.535156 18.253906 -1.445312 17.078125 -0.71875 C 15.898438 0 14.535156 0.359375 12.984375 0.359375 C 11.816406 0.359375 10.804688 0.164062 9.953125 -0.21875 C 9.097656 -0.613281 8.378906 -1.226562 7.796875 -2.0625 L 7.4375 -2 L 7.4375 7.625 Z M 11.671875 -3.640625 C 13.078125 -3.640625 14.144531 -4.097656 14.875 -5.015625 C 15.601562 -5.941406 15.96875 -7.398438 15.96875 -9.390625 C 15.96875 -11.378906 15.601562 -12.835938 14.875 -13.765625 C 14.144531 -14.691406 13.078125 -15.15625 11.671875 -15.15625 C 10.359375 -15.15625 9.3125 -14.675781 8.53125 -13.71875 C 7.757812 -12.757812 7.375 -11.316406 7.375 -9.390625 C 7.375 -7.472656 7.757812 -6.035156 8.53125 -5.078125 C 9.3125 -4.117188 10.359375 -3.640625 11.671875 -3.640625 Z M 11.671875 -3.640625 "/></g></g></g></g><g clip-path="url(#191c0abd92)"><g fill="#ffffff" fill-opacity="1"><g transform="translate(48.834702, 33.869123)"><g><path d="M 2.703125 7.625 L 2.703125 -18.796875 L 7.4375 -18.796875 L 7.4375 -16.34375 L 7.796875 -16.28125 C 8.347656 -17.226562 9.085938 -17.941406 10.015625 -18.421875 C 10.953125 -18.910156 12.046875 -19.15625 13.296875 -19.15625 C 14.804688 -19.15625 16.125 -18.796875 17.25 -18.078125 C 18.382812 -17.367188 19.265625 -16.28125 19.890625 -14.8125 C 20.523438 -13.351562 20.84375 -11.546875 20.84375 -9.390625 C 20.84375 -7.242188 20.507812 -5.441406 19.84375 -3.984375 C 19.175781 -2.535156 18.253906 -1.445312 17.078125 -0.71875 C 15.898438 0 14.535156 0.359375 12.984375 0.359375 C 11.816406 0.359375 10.804688 0.164062 9.953125 -0.21875 C 9.097656 -0.613281 8.378906 -1.226562 7.796875 -2.0625 L 7.4375 -2 L 7.4375 7.625 Z M 11.671875 -3.640625 C 13.078125 -3.640625 14.144531 -4.097656 14.875 -5.015625 C 15.601562 -5.941406 15.96875 -7.398438 15.96875 -9.390625 C 15.96875 -11.378906 15.601562 -12.835938 14.875 -13.765625 C 14.144531 -14.691406 13.078125 -15.15625 11.671875 -15.15625 C 10.359375 -15.15625 9.3125 -14.675781 8.53125 -13.71875 C 7.757812 -12.757812 7.375 -11.316406 7.375 -9.390625 C 7.375 -7.472656 7.757812 -6.035156 8.53125 -5.078125 C 9.3125 -4.117188 10.359375 -3.640625 11.671875 -3.640625 Z M 11.671875 -3.640625 "/></g></g></g></g><g fill="#ffffff" fill-opacity="1"><g transform="translate(71.345584, 33.869123)"><g><path d="M 10.09375 0 L 5.140625 0 L 0.6875 -18.796875 L 5.0625 -18.796875 L 7.828125 -6.078125 L 8.1875 -6.078125 L 11.765625 -18.796875 L 15.84375 -18.796875 L 19.546875 -6.078125 L 19.90625 -6.078125 L 22.5625 -18.796875 L 26.828125 -18.796875 L 22.40625 0 L 17.453125 0 L 13.890625 -12.796875 L 13.53125 -12.796875 Z M 10.09375 0 "/></g></g></g><g fill="#ffffff" fill-opacity="1"><g transform="translate(98.832374, 33.869123)"><g><path d="M 2.703125 0 L 2.703125 -18.796875 L 7.296875 -18.796875 L 7.296875 -16 L 7.65625 -15.9375 C 8.101562 -16.976562 8.695312 -17.742188 9.4375 -18.234375 C 10.175781 -18.722656 11.078125 -18.96875 12.140625 -18.96875 C 13.203125 -18.96875 14.015625 -18.785156 14.578125 -18.421875 L 13.765625 -14.34375 L 13.40625 -14.28125 C 13.101562 -14.40625 12.804688 -14.492188 12.515625 -14.546875 C 12.234375 -14.609375 11.890625 -14.640625 11.484375 -14.640625 C 10.171875 -14.640625 9.164062 -14.175781 8.46875 -13.25 C 7.78125 -12.320312 7.4375 -10.835938 7.4375 -8.796875 L 7.4375 0 Z M 2.703125 0 "/></g></g></g><g fill="#ffffff" fill-opacity="1"><g transform="translate(113.572658, 33.869123)"><g><path d="M 5.0625 -21.046875 C 4.207031 -21.046875 3.515625 -21.300781 2.984375 -21.8125 C 2.453125 -22.332031 2.1875 -23.003906 2.1875 -23.828125 C 2.1875 -24.628906 2.453125 -25.289062 2.984375 -25.8125 C 3.515625 -26.332031 4.207031 -26.59375 5.0625 -26.59375 C 5.632812 -26.59375 6.140625 -26.472656 6.578125 -26.234375 C 7.023438 -25.992188 7.367188 -25.664062 7.609375 -25.25 C 7.859375 -24.832031 7.984375 -24.359375 7.984375 -23.828125 C 7.984375 -23.296875 7.859375 -22.816406 7.609375 -22.390625 C 7.367188 -21.972656 7.023438 -21.644531 6.578125 -21.40625 C 6.140625 -21.164062 5.632812 -21.046875 5.0625 -21.046875 Z M 2.703125 0 L 2.703125 -18.796875 L 7.4375 -18.796875 L 7.4375 0 Z M 2.703125 0 "/></g></g></g><g fill="#ffffff" fill-opacity="1"><g transform="translate(123.694884, 33.869123)"><g><path d="M 12.96875 -4.484375 L 14.203125 -0.984375 C 13.691406 -0.566406 13.046875 -0.238281 12.265625 0 C 11.492188 0.238281 10.617188 0.359375 9.640625 0.359375 C 7.609375 0.359375 6.0625 -0.191406 5 -1.296875 C 3.945312 -2.410156 3.421875 -4.023438 3.421875 -6.140625 L 3.421875 -15.0625 L 0.5625 -15.0625 L 0.5625 -18.8125 L 3.421875 -18.8125 L 3.421875 -22.484375 L 8.140625 -23.25 L 8.140625 -18.8125 L 13.484375 -18.8125 L 13.484375 -15.0625 L 8.140625 -15.0625 L 8.140625 -6.484375 C 8.140625 -5.546875 8.332031 -4.863281 8.71875 -4.4375 C 9.113281 -4.007812 9.675781 -3.796875 10.40625 -3.796875 C 11.25 -3.796875 11.984375 -4.023438 12.609375 -4.484375 Z M 12.96875 -4.484375 "/></g></g></g><g fill="#ffffff" fill-opacity="1"><g transform="translate(138.298842, 33.869123)"><g><path d="M 18.578125 -8.328125 L 6.5 -8.328125 C 6.632812 -6.691406 7.097656 -5.5 7.890625 -4.75 C 8.679688 -4.007812 9.765625 -3.640625 11.140625 -3.640625 C 12.222656 -3.640625 13.097656 -3.84375 13.765625 -4.25 C 14.441406 -4.65625 14.984375 -5.265625 15.390625 -6.078125 L 15.75 -6.078125 L 18.890625 -4.078125 C 18.273438 -2.753906 17.347656 -1.679688 16.109375 -0.859375 C 14.867188 -0.046875 13.210938 0.359375 11.140625 0.359375 C 9.203125 0.359375 7.523438 -0.0078125 6.109375 -0.75 C 4.691406 -1.488281 3.597656 -2.585938 2.828125 -4.046875 C 2.066406 -5.503906 1.6875 -7.285156 1.6875 -9.390625 C 1.6875 -11.523438 2.085938 -13.328125 2.890625 -14.796875 C 3.703125 -16.265625 4.796875 -17.359375 6.171875 -18.078125 C 7.546875 -18.796875 9.09375 -19.15625 10.8125 -19.15625 C 13.46875 -19.15625 15.5 -18.453125 16.90625 -17.046875 C 18.320312 -15.640625 19.03125 -13.570312 19.03125 -10.84375 C 19.03125 -9.851562 19 -9.085938 18.9375 -8.546875 Z M 14.515625 -11.390625 C 14.472656 -12.816406 14.140625 -13.859375 13.515625 -14.515625 C 12.898438 -15.171875 12 -15.5 10.8125 -15.5 C 8.425781 -15.5 7.019531 -14.128906 6.59375 -11.390625 Z M 14.515625 -11.390625 "/></g></g></g></svg>