<svg xmlns="http://www.w3.org/2000/svg" xmlns:xlink="http://www.w3.org/1999/xlink" width="262" zoomAndPan="magnify" viewBox="0 0 196.5 42" height="56" preserveAspectRatio="xMidYMid meet" version="1.0"><defs><g/></defs><g fill="#ffffff" fill-opacity="1"><g transform="translate(2.040697, 31.422067)"><g><path d="M 13.625 0.359375 C 11.320312 0.359375 9.296875 -0.113281 7.546875 -1.0625 C 5.796875 -2.019531 4.425781 -3.457031 3.4375 -5.375 C 2.445312 -7.289062 1.953125 -9.648438 1.953125 -12.453125 C 1.953125 -15.265625 2.445312 -17.625 3.4375 -19.53125 C 4.425781 -21.445312 5.796875 -22.882812 7.546875 -23.84375 C 9.296875 -24.800781 11.320312 -25.28125 13.625 -25.28125 C 16.019531 -25.28125 18.054688 -24.8125 19.734375 -23.875 C 21.410156 -22.9375 22.601562 -21.503906 23.3125 -19.578125 L 19.71875 -17.390625 L 19.296875 -17.40625 C 18.765625 -18.695312 18.039062 -19.625 17.125 -20.1875 C 16.207031 -20.75 15.039062 -21.03125 13.625 -21.03125 C 11.550781 -21.03125 9.9375 -20.34375 8.78125 -18.96875 C 7.625 -17.601562 7.046875 -15.429688 7.046875 -12.453125 C 7.046875 -9.492188 7.625 -7.328125 8.78125 -5.953125 C 9.9375 -4.585938 11.550781 -3.90625 13.625 -3.90625 C 16.851562 -3.90625 18.832031 -5.476562 19.5625 -8.625 L 20 -8.625 L 23.625 -6.734375 C 22.9375 -4.367188 21.769531 -2.59375 20.125 -1.40625 C 18.476562 -0.226562 16.3125 0.359375 13.625 0.359375 Z M 13.625 0.359375 "/></g></g><g transform="translate(26.4869, 31.422067)"><g><path d="M 7.8125 0.359375 C 6.113281 0.359375 4.816406 -0.0976562 3.921875 -1.015625 C 3.035156 -1.929688 2.59375 -3.320312 2.59375 -5.1875 L 2.59375 -26.34375 L 7.3125 -26.34375 L 7.3125 -5.375 C 7.3125 -4.21875 7.789062 -3.640625 8.75 -3.640625 C 9.019531 -3.640625 9.304688 -3.6875 9.609375 -3.78125 L 9.84375 -3.71875 L 10.28125 -0.078125 C 10.019531 0.0546875 9.671875 0.160156 9.234375 0.234375 C 8.804688 0.316406 8.332031 0.359375 7.8125 0.359375 Z M 7.8125 0.359375 "/></g></g><g transform="translate(37.295053, 31.422067)"><g><path d="M 18.578125 -8.328125 L 6.5 -8.328125 C 6.632812 -6.691406 7.097656 -5.5 7.890625 -4.75 C 8.679688 -4.007812 9.765625 -3.640625 11.140625 -3.640625 C 12.222656 -3.640625 13.097656 -3.84375 13.765625 -4.25 C 14.441406 -4.65625 14.984375 -5.265625 15.390625 -6.078125 L 15.75 -6.078125 L 18.890625 -4.078125 C 18.273438 -2.753906 17.347656 -1.679688 16.109375 -0.859375 C 14.867188 -0.046875 13.210938 0.359375 11.140625 0.359375 C 9.203125 0.359375 7.523438 -0.0078125 6.109375 -0.75 C 4.691406 -1.488281 3.597656 -2.585938 2.828125 -4.046875 C 2.066406 -5.503906 1.6875 -7.285156 1.6875 -9.390625 C 1.6875 -11.523438 2.085938 -13.328125 2.890625 -14.796875 C 3.703125 -16.265625 4.796875 -17.359375 6.171875 -18.078125 C 7.546875 -18.796875 9.09375 -19.15625 10.8125 -19.15625 C 13.46875 -19.15625 15.5 -18.453125 16.90625 -17.046875 C 18.320312 -15.640625 19.03125 -13.570312 19.03125 -10.84375 C 19.03125 -9.851562 19 -9.085938 18.9375 -8.546875 Z M 14.515625 -11.390625 C 14.472656 -12.816406 14.140625 -13.859375 13.515625 -14.515625 C 12.898438 -15.171875 12 -15.5 10.8125 -15.5 C 8.425781 -15.5 7.019531 -14.128906 6.59375 -11.390625 Z M 14.515625 -11.390625 "/></g></g><g transform="translate(57.73508, 31.422067)"><g><path d="M 2.703125 0 L 2.703125 -18.796875 L 7.296875 -18.796875 L 7.296875 -16 L 7.65625 -15.9375 C 8.101562 -16.976562 8.695312 -17.742188 9.4375 -18.234375 C 10.175781 -18.722656 11.078125 -18.96875 12.140625 -18.96875 C 13.203125 -18.96875 14.015625 -18.785156 14.578125 -18.421875 L 13.765625 -14.34375 L 13.40625 -14.28125 C 13.101562 -14.40625 12.804688 -14.492188 12.515625 -14.546875 C 12.234375 -14.609375 11.890625 -14.640625 11.484375 -14.640625 C 10.171875 -14.640625 9.164062 -14.175781 8.46875 -13.25 C 7.78125 -12.320312 7.4375 -10.835938 7.4375 -8.796875 L 7.4375 0 Z M 2.703125 0 "/></g></g><g transform="translate(72.48122, 31.422067)"><g><path d="M 2.703125 0 L 2.703125 -26.34375 L 7.4375 -26.34375 L 7.4375 -11.71875 L 7.890625 -11.71875 L 13.328125 -18.796875 L 18.125 -18.796875 L 18.125 -18.40625 L 11.71875 -10.15625 L 18.828125 -0.421875 L 18.828125 0 L 13.859375 0 L 7.890625 -7.921875 L 7.4375 -7.921875 L 7.4375 0 Z M 2.703125 0 "/></g></g></g></svg>