<svg xmlns="http://www.w3.org/2000/svg" xmlns:xlink="http://www.w3.org/1999/xlink" width="86" zoomAndPan="magnify" viewBox="0 0 64.5 43.499998" height="58" preserveAspectRatio="xMidYMid meet" version="1.0"><defs><clipPath id="5f350a2c64"><path d="M 21 0 L 53.503906 0 L 53.503906 43.003906 L 21 43.003906 Z M 21 0 " clip-rule="nonzero"/></clipPath><clipPath id="dfa7f3c980"><path d="M 42 21 L 53.503906 21 L 53.503906 43.003906 L 42 43.003906 Z M 42 21 " clip-rule="nonzero"/></clipPath><clipPath id="016c3b239c"><path d="M 10.5 0 L 33 0 L 33 43.003906 L 10.5 43.003906 Z M 10.5 0 " clip-rule="nonzero"/></clipPath></defs><g clip-path="url(#5f350a2c64)"><path fill="#59529d" d="M 53.503906 0 L 53.503906 21.503906 L 32.003906 43.003906 L 21.25 32.253906 L 32.003906 21.503906 L 32.003906 21.601562 L 32.003906 21.503906 Z M 53.503906 0 " fill-opacity="1" fill-rule="nonzero"/></g><g clip-path="url(#dfa7f3c980)"><path fill="#5271b4" d="M 53.503906 21.503906 L 53.503906 43.003906 L 42.753906 32.253906 Z M 53.503906 21.503906 " fill-opacity="1" fill-rule="nonzero"/></g><g clip-path="url(#016c3b239c)"><path fill="#bb4b96" d="M 32.003906 21.503906 L 21.25 32.253906 L 10.5 43.003906 L 10.5 0 Z M 32.003906 21.503906 " fill-opacity="1" fill-rule="nonzero"/></g></svg>