<svg xmlns="http://www.w3.org/2000/svg" xmlns:xlink="http://www.w3.org/1999/xlink" width="262" zoomAndPan="magnify" viewBox="0 0 196.5 42" height="56" preserveAspectRatio="xMidYMid meet" version="1.0"><defs><g/></defs><g fill="#ffffff" fill-opacity="1"><g transform="translate(2.040697, 33.869123)"><g><path d="M 19.03125 -24.921875 L 19.03125 -20.796875 L 8.171875 -20.796875 L 8.171875 -14.203125 L 18.03125 -14.203125 L 18.03125 -10.125 L 8.171875 -10.125 L 8.171875 0 L 3.234375 0 L 3.234375 -24.921875 Z M 19.03125 -24.921875 "/></g></g></g><g fill="#ffffff" fill-opacity="1"><g transform="translate(22.182904, 33.869123)"><g><path d="M 2.703125 0 L 2.703125 -18.796875 L 7.296875 -18.796875 L 7.296875 -16 L 7.65625 -15.9375 C 8.101562 -16.976562 8.695312 -17.742188 9.4375 -18.234375 C 10.175781 -18.722656 11.078125 -18.96875 12.140625 -18.96875 C 13.203125 -18.96875 14.015625 -18.785156 14.578125 -18.421875 L 13.765625 -14.34375 L 13.40625 -14.28125 C 13.101562 -14.40625 12.804688 -14.492188 12.515625 -14.546875 C 12.234375 -14.609375 11.890625 -14.640625 11.484375 -14.640625 C 10.171875 -14.640625 9.164062 -14.175781 8.46875 -13.25 C 7.78125 -12.320312 7.4375 -10.835938 7.4375 -8.796875 L 7.4375 0 Z M 2.703125 0 "/></g></g></g><g fill="#ffffff" fill-opacity="1"><g transform="translate(36.923188, 33.869123)"><g><path d="M 7.328125 0.359375 C 6.117188 0.359375 5.070312 0.140625 4.1875 -0.296875 C 3.300781 -0.742188 2.617188 -1.394531 2.140625 -2.25 C 1.671875 -3.113281 1.4375 -4.148438 1.4375 -5.359375 C 1.4375 -6.460938 1.671875 -7.390625 2.140625 -8.140625 C 2.617188 -8.898438 3.359375 -9.519531 4.359375 -10 C 5.359375 -10.488281 6.664062 -10.863281 8.28125 -11.125 C 9.40625 -11.3125 10.257812 -11.507812 10.84375 -11.71875 C 11.425781 -11.9375 11.820312 -12.179688 12.03125 -12.453125 C 12.238281 -12.734375 12.34375 -13.082031 12.34375 -13.5 C 12.34375 -14.101562 12.128906 -14.5625 11.703125 -14.875 C 11.285156 -15.195312 10.585938 -15.359375 9.609375 -15.359375 C 8.566406 -15.359375 7.570312 -15.125 6.625 -14.65625 C 5.6875 -14.1875 4.867188 -13.570312 4.171875 -12.8125 L 3.828125 -12.8125 L 1.859375 -15.796875 C 2.816406 -16.859375 3.984375 -17.679688 5.359375 -18.265625 C 6.734375 -18.859375 8.226562 -19.15625 9.84375 -19.15625 C 12.332031 -19.15625 14.132812 -18.625 15.25 -17.5625 C 16.363281 -16.507812 16.921875 -15.015625 16.921875 -13.078125 L 16.921875 -4.90625 C 16.921875 -4.0625 17.289062 -3.640625 18.03125 -3.640625 C 18.3125 -3.640625 18.59375 -3.691406 18.875 -3.796875 L 19.109375 -3.734375 L 19.453125 -0.4375 C 19.191406 -0.269531 18.828125 -0.128906 18.359375 -0.015625 C 17.890625 0.0859375 17.378906 0.140625 16.828125 0.140625 C 15.703125 0.140625 14.820312 -0.0703125 14.1875 -0.5 C 13.5625 -0.9375 13.109375 -1.617188 12.828125 -2.546875 L 12.46875 -2.578125 C 11.550781 -0.617188 9.835938 0.359375 7.328125 0.359375 Z M 8.828125 -3.171875 C 9.921875 -3.171875 10.789062 -3.535156 11.4375 -4.265625 C 12.09375 -5.003906 12.421875 -6.023438 12.421875 -7.328125 L 12.421875 -9.234375 L 12.09375 -9.3125 C 11.8125 -9.082031 11.441406 -8.890625 10.984375 -8.734375 C 10.523438 -8.578125 9.863281 -8.425781 9 -8.28125 C 7.976562 -8.113281 7.242188 -7.820312 6.796875 -7.40625 C 6.347656 -6.988281 6.125 -6.398438 6.125 -5.640625 C 6.125 -4.835938 6.359375 -4.222656 6.828125 -3.796875 C 7.304688 -3.378906 7.972656 -3.171875 8.828125 -3.171875 Z M 8.828125 -3.171875 "/></g></g></g><g fill="#ffffff" fill-opacity="1"><g transform="translate(56.741625, 33.869123)"><g><path d="M 2.703125 0 L 2.703125 -18.796875 L 7.25 -18.796875 L 7.25 -16.28125 L 7.609375 -16.203125 C 8.210938 -17.210938 8.925781 -17.957031 9.75 -18.4375 C 10.582031 -18.914062 11.640625 -19.15625 12.921875 -19.15625 C 14.335938 -19.15625 15.476562 -18.875 16.34375 -18.3125 C 17.207031 -17.75 17.835938 -16.925781 18.234375 -15.84375 L 18.59375 -15.84375 C 19.175781 -16.96875 19.921875 -17.800781 20.828125 -18.34375 C 21.742188 -18.882812 22.882812 -19.15625 24.25 -19.15625 C 28.144531 -19.15625 30.09375 -16.984375 30.09375 -12.640625 L 30.09375 0 L 25.375 0 L 25.375 -12.046875 C 25.375 -13.148438 25.15625 -13.945312 24.71875 -14.4375 C 24.289062 -14.925781 23.601562 -15.171875 22.65625 -15.171875 C 20.0625 -15.171875 18.765625 -13.4375 18.765625 -9.96875 L 18.765625 0 L 14.046875 0 L 14.046875 -12.046875 C 14.046875 -13.148438 13.828125 -13.945312 13.390625 -14.4375 C 12.953125 -14.925781 12.253906 -15.171875 11.296875 -15.171875 C 10.078125 -15.171875 9.128906 -14.765625 8.453125 -13.953125 C 7.773438 -13.140625 7.4375 -11.847656 7.4375 -10.078125 L 7.4375 0 Z M 2.703125 0 "/></g></g></g><g fill="#ffffff" fill-opacity="1"><g transform="translate(89.255442, 33.869123)"><g><path d="M 18.578125 -8.328125 L 6.5 -8.328125 C 6.632812 -6.691406 7.097656 -5.5 7.890625 -4.75 C 8.679688 -4.007812 9.765625 -3.640625 11.140625 -3.640625 C 12.222656 -3.640625 13.097656 -3.84375 13.765625 -4.25 C 14.441406 -4.65625 14.984375 -5.265625 15.390625 -6.078125 L 15.75 -6.078125 L 18.890625 -4.078125 C 18.273438 -2.753906 17.347656 -1.679688 16.109375 -0.859375 C 14.867188 -0.046875 13.210938 0.359375 11.140625 0.359375 C 9.203125 0.359375 7.523438 -0.0078125 6.109375 -0.75 C 4.691406 -1.488281 3.597656 -2.585938 2.828125 -4.046875 C 2.066406 -5.503906 1.6875 -7.285156 1.6875 -9.390625 C 1.6875 -11.523438 2.085938 -13.328125 2.890625 -14.796875 C 3.703125 -16.265625 4.796875 -17.359375 6.171875 -18.078125 C 7.546875 -18.796875 9.09375 -19.15625 10.8125 -19.15625 C 13.46875 -19.15625 15.5 -18.453125 16.90625 -17.046875 C 18.320312 -15.640625 19.03125 -13.570312 19.03125 -10.84375 C 19.03125 -9.851562 19 -9.085938 18.9375 -8.546875 Z M 14.515625 -11.390625 C 14.472656 -12.816406 14.140625 -13.859375 13.515625 -14.515625 C 12.898438 -15.171875 12 -15.5 10.8125 -15.5 C 8.425781 -15.5 7.019531 -14.128906 6.59375 -11.390625 Z M 14.515625 -11.390625 "/></g></g></g><g fill="#ffffff" fill-opacity="1"><g transform="translate(109.687348, 33.869123)"><g><path d="M 2.703125 0 L 2.703125 -18.796875 L 7.296875 -18.796875 L 7.296875 -16 L 7.65625 -15.9375 C 8.101562 -16.976562 8.695312 -17.742188 9.4375 -18.234375 C 10.175781 -18.722656 11.078125 -18.96875 12.140625 -18.96875 C 13.203125 -18.96875 14.015625 -18.785156 14.578125 -18.421875 L 13.765625 -14.34375 L 13.40625 -14.28125 C 13.101562 -14.40625 12.804688 -14.492188 12.515625 -14.546875 C 12.234375 -14.609375 11.890625 -14.640625 11.484375 -14.640625 C 10.171875 -14.640625 9.164062 -14.175781 8.46875 -13.25 C 7.78125 -12.320312 7.4375 -10.835938 7.4375 -8.796875 L 7.4375 0 Z M 2.703125 0 "/></g></g></g></svg>