<svg xmlns="http://www.w3.org/2000/svg" xmlns:xlink="http://www.w3.org/1999/xlink" width="86" zoomAndPan="magnify" viewBox="0 0 64.5 43.499998" height="58" preserveAspectRatio="xMidYMid meet" version="1.0"><defs><clipPath id="cbaa10ba7c"><path d="M 23.402344 21.503906 L 28.59375 21.503906 L 28.59375 26.691406 L 23.402344 26.691406 Z M 23.402344 21.503906 " clip-rule="nonzero"/></clipPath></defs><path fill="#01ec64" d="M 35.851562 4.863281 C 34.042969 2.730469 32.484375 0.5625 32.167969 0.113281 C 32.160156 0.105469 32.152344 0.0976562 32.140625 0.09375 C 32.132812 0.0898438 32.121094 0.0898438 32.109375 0.0898438 C 32.097656 0.0898438 32.085938 0.0898438 32.078125 0.09375 C 32.066406 0.0976562 32.058594 0.105469 32.050781 0.113281 C 31.730469 0.5625 30.175781 2.730469 28.367188 4.863281 C 12.839844 24.546875 30.8125 37.832031 30.8125 37.832031 L 30.960938 37.929688 C 31.097656 39.980469 31.429688 42.933594 31.429688 42.933594 L 32.769531 42.933594 C 32.769531 42.933594 33.105469 40 33.238281 37.929688 L 33.390625 37.816406 C 33.40625 37.832031 51.378906 24.546875 35.851562 4.863281 Z M 32.101562 37.53125 C 32.101562 37.53125 31.296875 36.847656 31.078125 36.5 L 31.078125 36.464844 L 32.050781 15.03125 C 32.050781 14.964844 32.152344 14.964844 32.152344 15.03125 L 33.121094 36.464844 L 33.121094 36.5 C 32.90625 36.847656 32.101562 37.53125 32.101562 37.53125 Z M 32.101562 37.53125 " fill-opacity="1" fill-rule="nonzero"/><g clip-path="url(#cbaa10ba7c)"><path fill="#01ec64" d="M 28.730469 24.167969 C 28.730469 24.519531 28.664062 24.859375 28.527344 25.1875 C 28.394531 25.515625 28.199219 25.800781 27.949219 26.050781 C 27.699219 26.300781 27.414062 26.496094 27.085938 26.628906 C 26.757812 26.765625 26.417969 26.832031 26.066406 26.832031 C 25.714844 26.832031 25.371094 26.765625 25.046875 26.628906 C 24.71875 26.496094 24.433594 26.300781 24.183594 26.050781 C 23.933594 25.800781 23.738281 25.515625 23.605469 25.1875 C 23.46875 24.859375 23.402344 24.519531 23.402344 24.167969 C 23.402344 23.816406 23.46875 23.472656 23.605469 23.148438 C 23.738281 22.820312 23.933594 22.535156 24.183594 22.285156 C 24.433594 22.035156 24.71875 21.839844 25.046875 21.707031 C 25.371094 21.570312 25.714844 21.503906 26.066406 21.503906 C 26.417969 21.503906 26.757812 21.570312 27.085938 21.707031 C 27.414062 21.839844 27.699219 22.035156 27.949219 22.285156 C 28.199219 22.535156 28.394531 22.820312 28.527344 23.148438 C 28.664062 23.472656 28.730469 23.816406 28.730469 24.167969 Z M 28.730469 24.167969 " fill-opacity="1" fill-rule="nonzero"/></g></svg>