<svg xmlns="http://www.w3.org/2000/svg" xmlns:xlink="http://www.w3.org/1999/xlink" width="262" zoomAndPan="magnify" viewBox="0 0 196.5 42" height="56" preserveAspectRatio="xMidYMid meet" version="1.0"><defs><g/><clipPath id="e9d42bd45b"><path d="M 78 12 L 98 12 L 98 41.023438 L 78 41.023438 Z M 78 12 " clip-rule="nonzero"/></clipPath></defs><g fill="#ffffff" fill-opacity="1"><g transform="translate(2.040697, 33.869123)"><g><path d="M 7.75 0 L 3.234375 0 L 3.234375 -24.921875 L 9.6875 -24.921875 L 15.984375 -6.59375 L 16.34375 -6.59375 L 22.625 -24.921875 L 28.90625 -24.921875 L 28.90625 0 L 24.234375 0 L 24.234375 -16.46875 L 23.8125 -16.53125 L 18.046875 0 L 13.9375 0 L 8.1875 -16.53125 L 7.75 -16.46875 Z M 7.75 0 "/></g></g></g><g fill="#ffffff" fill-opacity="1"><g transform="translate(34.196663, 33.869123)"><g><path d="M 10.921875 0.359375 C 9.085938 0.359375 7.472656 -0.015625 6.078125 -0.765625 C 4.679688 -1.523438 3.597656 -2.632812 2.828125 -4.09375 C 2.066406 -5.5625 1.6875 -7.328125 1.6875 -9.390625 C 1.6875 -11.460938 2.066406 -13.226562 2.828125 -14.6875 C 3.597656 -16.15625 4.679688 -17.265625 6.078125 -18.015625 C 7.472656 -18.773438 9.085938 -19.15625 10.921875 -19.15625 C 12.765625 -19.15625 14.378906 -18.773438 15.765625 -18.015625 C 17.160156 -17.265625 18.242188 -16.15625 19.015625 -14.6875 C 19.796875 -13.226562 20.1875 -11.460938 20.1875 -9.390625 C 20.1875 -7.328125 19.796875 -5.5625 19.015625 -4.09375 C 18.242188 -2.632812 17.160156 -1.523438 15.765625 -0.765625 C 14.378906 -0.015625 12.765625 0.359375 10.921875 0.359375 Z M 10.921875 -3.640625 C 13.847656 -3.640625 15.3125 -5.554688 15.3125 -9.390625 C 15.3125 -11.378906 14.9375 -12.835938 14.1875 -13.765625 C 13.4375 -14.691406 12.347656 -15.15625 10.921875 -15.15625 C 8.003906 -15.15625 6.546875 -13.234375 6.546875 -9.390625 C 6.546875 -5.554688 8.003906 -3.640625 10.921875 -3.640625 Z M 10.921875 -3.640625 "/></g></g></g><g fill="#ffffff" fill-opacity="1"><g transform="translate(56.042949, 33.869123)"><g><path d="M 2.703125 0 L 2.703125 -18.796875 L 7.25 -18.796875 L 7.25 -16.03125 L 7.609375 -15.953125 C 8.773438 -18.085938 10.671875 -19.15625 13.296875 -19.15625 C 15.460938 -19.15625 17.050781 -18.5625 18.0625 -17.375 C 19.082031 -16.195312 19.59375 -14.476562 19.59375 -12.21875 L 19.59375 0 L 14.875 0 L 14.875 -11.640625 C 14.875 -12.890625 14.625 -13.789062 14.125 -14.34375 C 13.625 -14.894531 12.820312 -15.171875 11.71875 -15.171875 C 10.375 -15.171875 9.320312 -14.734375 8.5625 -13.859375 C 7.8125 -12.984375 7.4375 -11.609375 7.4375 -9.734375 L 7.4375 0 Z M 2.703125 0 "/></g></g></g><g clip-path="url(#e9d42bd45b)"><g fill="#ffffff" fill-opacity="1"><g transform="translate(78.059642, 33.869123)"><g><path d="M 9.75 7.984375 C 6.644531 7.984375 4.351562 7.523438 2.875 6.609375 C 1.40625 5.703125 0.671875 4.4375 0.671875 2.8125 C 0.671875 1.820312 0.984375 1.007812 1.609375 0.375 C 2.242188 -0.25 3.148438 -0.671875 4.328125 -0.890625 L 4.328125 -1.25 C 3.691406 -1.632812 3.234375 -2.0625 2.953125 -2.53125 C 2.679688 -3 2.546875 -3.546875 2.546875 -4.171875 C 2.546875 -5.679688 3.523438 -6.703125 5.484375 -7.234375 L 5.484375 -7.578125 C 4.472656 -8.160156 3.710938 -8.878906 3.203125 -9.734375 C 2.691406 -10.597656 2.4375 -11.632812 2.4375 -12.84375 C 2.4375 -14.09375 2.722656 -15.191406 3.296875 -16.140625 C 3.867188 -17.097656 4.707031 -17.835938 5.8125 -18.359375 C 6.925781 -18.890625 8.253906 -19.15625 9.796875 -19.15625 C 11.367188 -19.15625 12.617188 -18.882812 13.546875 -18.34375 C 14.128906 -19.175781 14.46875 -20.144531 14.5625 -21.25 L 14.90625 -21.46875 L 18.3125 -20.640625 C 18.207031 -19.742188 17.941406 -18.988281 17.515625 -18.375 C 17.097656 -17.769531 16.445312 -17.226562 15.5625 -16.75 L 15.5625 -16.375 C 16.613281 -15.445312 17.140625 -14.144531 17.140625 -12.46875 C 17.140625 -11.3125 16.847656 -10.273438 16.265625 -9.359375 C 15.691406 -8.441406 14.847656 -7.710938 13.734375 -7.171875 C 12.628906 -6.640625 11.316406 -6.375 9.796875 -6.375 L 9.078125 -6.390625 C 8.628906 -6.410156 8.3125 -6.421875 8.125 -6.421875 C 7.695312 -6.421875 7.359375 -6.304688 7.109375 -6.078125 C 6.867188 -5.847656 6.75 -5.550781 6.75 -5.1875 C 6.75 -4.78125 6.90625 -4.46875 7.21875 -4.25 C 7.539062 -4.03125 8.007812 -3.910156 8.625 -3.890625 L 12.828125 -3.734375 C 16.992188 -3.609375 19.078125 -1.816406 19.078125 1.640625 C 19.078125 2.847656 18.765625 3.925781 18.140625 4.875 C 17.523438 5.832031 16.523438 6.585938 15.140625 7.140625 C 13.753906 7.703125 11.957031 7.984375 9.75 7.984375 Z M 9.796875 -9.6875 C 10.703125 -9.6875 11.410156 -9.953125 11.921875 -10.484375 C 12.441406 -11.015625 12.703125 -11.773438 12.703125 -12.765625 C 12.703125 -13.753906 12.441406 -14.507812 11.921875 -15.03125 C 11.410156 -15.5625 10.703125 -15.828125 9.796875 -15.828125 C 8.878906 -15.828125 8.171875 -15.5625 7.671875 -15.03125 C 7.171875 -14.507812 6.921875 -13.753906 6.921875 -12.765625 C 6.921875 -11.765625 7.171875 -11 7.671875 -10.46875 C 8.171875 -9.945312 8.878906 -9.6875 9.796875 -9.6875 Z M 9.75 4.546875 C 11.363281 4.546875 12.535156 4.316406 13.265625 3.859375 C 14.003906 3.410156 14.375 2.820312 14.375 2.09375 C 14.375 1.5 14.1875 1.0625 13.8125 0.78125 C 13.4375 0.507812 12.835938 0.363281 12.015625 0.34375 L 8.296875 0.171875 C 8.171875 0.171875 8.054688 0.164062 7.953125 0.15625 C 7.847656 0.144531 7.742188 0.140625 7.640625 0.140625 C 6.835938 0.140625 6.226562 0.304688 5.8125 0.640625 C 5.40625 0.984375 5.203125 1.457031 5.203125 2.0625 C 5.203125 2.851562 5.582031 3.460938 6.34375 3.890625 C 7.101562 4.328125 8.238281 4.546875 9.75 4.546875 Z M 9.75 4.546875 "/></g></g></g></g><g fill="#ffffff" fill-opacity="1"><g transform="translate(97.605427, 33.869123)"><g><path d="M 10.921875 0.359375 C 9.085938 0.359375 7.472656 -0.015625 6.078125 -0.765625 C 4.679688 -1.523438 3.597656 -2.632812 2.828125 -4.09375 C 2.066406 -5.5625 1.6875 -7.328125 1.6875 -9.390625 C 1.6875 -11.460938 2.066406 -13.226562 2.828125 -14.6875 C 3.597656 -16.15625 4.679688 -17.265625 6.078125 -18.015625 C 7.472656 -18.773438 9.085938 -19.15625 10.921875 -19.15625 C 12.765625 -19.15625 14.378906 -18.773438 15.765625 -18.015625 C 17.160156 -17.265625 18.242188 -16.15625 19.015625 -14.6875 C 19.796875 -13.226562 20.1875 -11.460938 20.1875 -9.390625 C 20.1875 -7.328125 19.796875 -5.5625 19.015625 -4.09375 C 18.242188 -2.632812 17.160156 -1.523438 15.765625 -0.765625 C 14.378906 -0.015625 12.765625 0.359375 10.921875 0.359375 Z M 10.921875 -3.640625 C 13.847656 -3.640625 15.3125 -5.554688 15.3125 -9.390625 C 15.3125 -11.378906 14.9375 -12.835938 14.1875 -13.765625 C 13.4375 -14.691406 12.347656 -15.15625 10.921875 -15.15625 C 8.003906 -15.15625 6.546875 -13.234375 6.546875 -9.390625 C 6.546875 -5.554688 8.003906 -3.640625 10.921875 -3.640625 Z M 10.921875 -3.640625 "/></g></g></g><g fill="#ffffff" fill-opacity="1"><g transform="translate(119.451713, 33.869123)"><g><path d="M 12.203125 -24.921875 C 16.242188 -24.921875 19.328125 -23.875 21.453125 -21.78125 C 23.585938 -19.6875 24.65625 -16.578125 24.65625 -12.453125 C 24.65625 -8.347656 23.585938 -5.242188 21.453125 -3.140625 C 19.328125 -1.046875 16.242188 0 12.203125 0 L 3.234375 0 L 3.234375 -24.921875 Z M 11.90625 -4.140625 C 14.476562 -4.140625 16.398438 -4.796875 17.671875 -6.109375 C 18.941406 -7.421875 19.578125 -9.535156 19.578125 -12.453125 C 19.578125 -15.378906 18.941406 -17.5 17.671875 -18.8125 C 16.398438 -20.125 14.476562 -20.78125 11.90625 -20.78125 L 8.171875 -20.78125 L 8.171875 -4.140625 Z M 11.90625 -4.140625 "/></g></g></g><g fill="#ffffff" fill-opacity="1"><g transform="translate(146.086465, 33.869123)"><g><path d="M 3.234375 0 L 3.234375 -24.921875 L 13.875 -24.921875 C 15.40625 -24.921875 16.703125 -24.675781 17.765625 -24.1875 C 18.828125 -23.707031 19.628906 -23.019531 20.171875 -22.125 C 20.722656 -21.238281 21 -20.1875 21 -18.96875 C 21 -17.863281 20.726562 -16.890625 20.1875 -16.046875 C 19.65625 -15.210938 18.890625 -14.539062 17.890625 -14.03125 L 17.890625 -13.671875 C 19.460938 -13.265625 20.675781 -12.519531 21.53125 -11.4375 C 22.382812 -10.351562 22.8125 -9.03125 22.8125 -7.46875 C 22.8125 -5.082031 22.09375 -3.238281 20.65625 -1.9375 C 19.21875 -0.644531 17.082031 0 14.25 0 Z M 12.84375 -14.984375 C 15.144531 -14.984375 16.296875 -16.015625 16.296875 -18.078125 C 16.296875 -19.140625 16.007812 -19.925781 15.4375 -20.4375 C 14.875 -20.957031 14.007812 -21.21875 12.84375 -21.21875 L 8.171875 -21.21875 L 8.171875 -14.984375 Z M 13.75 -3.90625 C 16.46875 -3.90625 17.828125 -5.140625 17.828125 -7.609375 C 17.828125 -10.078125 16.46875 -11.3125 13.75 -11.3125 L 8.171875 -11.3125 L 8.171875 -3.90625 Z M 13.75 -3.90625 "/></g></g></g></svg>