<svg xmlns="http://www.w3.org/2000/svg" xmlns:xlink="http://www.w3.org/1999/xlink" width="86" zoomAndPan="magnify" viewBox="0 0 64.5 43.499998" height="58" preserveAspectRatio="xMidYMid meet" version="1.0"><defs><clipPath id="a08bcefe51"><path d="M 9 0 L 52 0 L 52 43.003906 L 9 43.003906 Z M 9 0 " clip-rule="nonzero"/></clipPath><clipPath id="d4165a0d9c"><path d="M 30.410156 7.933594 L 33.375 7.933594 L 33.375 10.898438 L 30.410156 10.898438 Z M 30.410156 7.933594 " clip-rule="nonzero"/></clipPath></defs><g clip-path="url(#a08bcefe51)"><path fill="#ffffff" d="M 41.199219 3.421875 C 27.097656 -4.871094 9.175781 5.257812 9.019531 21.609375 C 8.867188 37.578125 25.765625 47.890625 39.835938 40.863281 L 24.472656 18.257812 L 24.472656 32.25 C 24.472656 33.800781 21.507812 33.800781 21.507812 32.25 L 21.507812 13.492188 C 21.507812 12.261719 23.792969 12.160156 24.441406 13.230469 L 41.953125 39.65625 C 55.109375 31.183594 54.929688 11.496094 41.199219 3.421875 Z M 39.222656 29.902344 L 36.246094 25.355469 L 36.246094 12.914062 C 36.246094 11.753906 39.222656 11.753906 39.222656 12.914062 Z M 39.222656 29.902344 " fill-opacity="1" fill-rule="nonzero"/></g><g clip-path="url(#d4165a0d9c)"><path fill="#ffffff" d="M 33.59375 9.527344 C 33.59375 9.738281 33.554688 9.941406 33.472656 10.136719 C 33.394531 10.332031 33.277344 10.503906 33.128906 10.652344 C 32.980469 10.804688 32.804688 10.917969 32.613281 11 C 32.417969 11.078125 32.214844 11.121094 32 11.121094 C 31.789062 11.121094 31.585938 11.078125 31.390625 11 C 31.195312 10.917969 31.023438 10.804688 30.875 10.652344 C 30.726562 10.503906 30.609375 10.332031 30.53125 10.136719 C 30.449219 9.941406 30.410156 9.738281 30.410156 9.527344 C 30.410156 9.316406 30.449219 9.113281 30.53125 8.917969 C 30.609375 8.722656 30.726562 8.550781 30.875 8.402344 C 31.023438 8.25 31.195312 8.136719 31.390625 8.054688 C 31.585938 7.972656 31.789062 7.933594 32 7.933594 C 32.214844 7.933594 32.417969 7.972656 32.613281 8.054688 C 32.804688 8.136719 32.980469 8.25 33.128906 8.402344 C 33.277344 8.550781 33.394531 8.722656 33.472656 8.917969 C 33.554688 9.113281 33.59375 9.316406 33.59375 9.527344 Z M 33.59375 9.527344 " fill-opacity="1" fill-rule="nonzero"/></g></svg>