<svg xmlns="http://www.w3.org/2000/svg" xmlns:xlink="http://www.w3.org/1999/xlink" width="262" zoomAndPan="magnify" viewBox="0 0 196.5 42" height="56" preserveAspectRatio="xMidYMid meet" version="1.0"><defs><g/></defs><g fill="#ffffff" fill-opacity="1"><g transform="translate(2.040697, 31.422067)"><g><path d="M 8.015625 0 L 3.234375 0 L 3.234375 -24.921875 L 8.875 -24.921875 L 18.890625 -8.859375 L 19.328125 -8.9375 L 19.328125 -24.921875 L 24.0625 -24.921875 L 24.0625 0 L 19.015625 0 L 8.4375 -17.140625 L 8.015625 -17.078125 Z M 8.015625 0 "/></g></g><g transform="translate(29.367938, 31.422067)"><g><path d="M 18.578125 -8.328125 L 6.5 -8.328125 C 6.632812 -6.691406 7.097656 -5.5 7.890625 -4.75 C 8.679688 -4.007812 9.765625 -3.640625 11.140625 -3.640625 C 12.222656 -3.640625 13.097656 -3.84375 13.765625 -4.25 C 14.441406 -4.65625 14.984375 -5.265625 15.390625 -6.078125 L 15.75 -6.078125 L 18.890625 -4.078125 C 18.273438 -2.753906 17.347656 -1.679688 16.109375 -0.859375 C 14.867188 -0.046875 13.210938 0.359375 11.140625 0.359375 C 9.203125 0.359375 7.523438 -0.0078125 6.109375 -0.75 C 4.691406 -1.488281 3.597656 -2.585938 2.828125 -4.046875 C 2.066406 -5.503906 1.6875 -7.285156 1.6875 -9.390625 C 1.6875 -11.523438 2.085938 -13.328125 2.890625 -14.796875 C 3.703125 -16.265625 4.796875 -17.359375 6.171875 -18.078125 C 7.546875 -18.796875 9.09375 -19.15625 10.8125 -19.15625 C 13.46875 -19.15625 15.5 -18.453125 16.90625 -17.046875 C 18.320312 -15.640625 19.03125 -13.570312 19.03125 -10.84375 C 19.03125 -9.851562 19 -9.085938 18.9375 -8.546875 Z M 14.515625 -11.390625 C 14.472656 -12.816406 14.140625 -13.859375 13.515625 -14.515625 C 12.898438 -15.171875 12 -15.5 10.8125 -15.5 C 8.425781 -15.5 7.019531 -14.128906 6.59375 -11.390625 Z M 14.515625 -11.390625 "/></g></g><g transform="translate(49.807964, 31.422067)"><g><path d="M 5.296875 0 L 0.328125 0 L 5.6875 -9.75 L 0.609375 -18.796875 L 5.65625 -18.796875 L 8.90625 -12.609375 L 9.3125 -12.609375 L 12.578125 -18.796875 L 17.46875 -18.796875 L 12.546875 -9.75 L 17.765625 0 L 12.734375 0 L 9.1875 -6.875 L 8.796875 -6.875 Z M 5.296875 0 "/></g></g><g transform="translate(67.895426, 31.422067)"><g><path d="M 12.96875 -4.484375 L 14.203125 -0.984375 C 13.691406 -0.566406 13.046875 -0.238281 12.265625 0 C 11.492188 0.238281 10.617188 0.359375 9.640625 0.359375 C 7.609375 0.359375 6.0625 -0.191406 5 -1.296875 C 3.945312 -2.410156 3.421875 -4.023438 3.421875 -6.140625 L 3.421875 -15.0625 L 0.5625 -15.0625 L 0.5625 -18.8125 L 3.421875 -18.8125 L 3.421875 -22.484375 L 8.140625 -23.25 L 8.140625 -18.8125 L 13.484375 -18.8125 L 13.484375 -15.0625 L 8.140625 -15.0625 L 8.140625 -6.484375 C 8.140625 -5.546875 8.332031 -4.863281 8.71875 -4.4375 C 9.113281 -4.007812 9.675781 -3.796875 10.40625 -3.796875 C 11.25 -3.796875 11.984375 -4.023438 12.609375 -4.484375 Z M 12.96875 -4.484375 "/></g></g><g transform="translate(82.505186, 31.422067)"><g><path d="M 8.734375 0.359375 C 6.617188 0.359375 4.859375 -0.0390625 3.453125 -0.84375 C 2.054688 -1.644531 1.039062 -2.722656 0.40625 -4.078125 L 3.1875 -7.453125 L 3.609375 -7.453125 C 4.066406 -6.359375 4.710938 -5.492188 5.546875 -4.859375 C 6.378906 -4.234375 7.347656 -3.921875 8.453125 -3.921875 C 9.691406 -3.921875 10.613281 -4.28125 11.21875 -5 C 11.820312 -5.71875 12.125 -6.890625 12.125 -8.515625 L 12.125 -24.921875 L 17.03125 -24.921875 L 17.03125 -8.4375 C 17.03125 -5.425781 16.34375 -3.207031 14.96875 -1.78125 C 13.601562 -0.351562 11.523438 0.359375 8.734375 0.359375 Z M 8.734375 0.359375 "/></g></g><g transform="translate(102.621309, 31.422067)"><g><path d="M 11.046875 0.359375 C 9.316406 0.359375 7.78125 0.144531 6.4375 -0.28125 C 5.09375 -0.707031 3.96875 -1.265625 3.0625 -1.953125 C 2.164062 -2.648438 1.476562 -3.414062 1 -4.25 L 3.71875 -7.546875 L 4.140625 -7.546875 C 4.890625 -6.429688 5.84375 -5.546875 7 -4.890625 C 8.15625 -4.234375 9.503906 -3.90625 11.046875 -3.90625 C 12.359375 -3.90625 13.347656 -4.179688 14.015625 -4.734375 C 14.691406 -5.296875 15.03125 -6.066406 15.03125 -7.046875 C 15.03125 -7.628906 14.921875 -8.117188 14.703125 -8.515625 C 14.492188 -8.921875 14.140625 -9.265625 13.640625 -9.546875 C 13.140625 -9.828125 12.460938 -10.070312 11.609375 -10.28125 L 8.40625 -11.015625 C 6.164062 -11.523438 4.492188 -12.375 3.390625 -13.5625 C 2.296875 -14.75 1.75 -16.289062 1.75 -18.1875 C 1.75 -19.59375 2.101562 -20.828125 2.8125 -21.890625 C 3.519531 -22.960938 4.546875 -23.796875 5.890625 -24.390625 C 7.234375 -24.984375 8.84375 -25.28125 10.71875 -25.28125 C 12.632812 -25.28125 14.273438 -25.023438 15.640625 -24.515625 C 17.015625 -24.015625 18.175781 -23.238281 19.125 -22.1875 L 16.6875 -18.84375 L 16.265625 -18.84375 C 15.554688 -19.582031 14.742188 -20.132812 13.828125 -20.5 C 12.921875 -20.875 11.882812 -21.0625 10.71875 -21.0625 C 9.363281 -21.0625 8.332031 -20.820312 7.625 -20.34375 C 6.925781 -19.875 6.578125 -19.21875 6.578125 -18.375 C 6.578125 -17.59375 6.820312 -16.96875 7.3125 -16.5 C 7.8125 -16.03125 8.671875 -15.664062 9.890625 -15.40625 L 13.15625 -14.71875 C 15.570312 -14.207031 17.328125 -13.34375 18.421875 -12.125 C 19.515625 -10.90625 20.0625 -9.3125 20.0625 -7.34375 C 20.0625 -5.789062 19.722656 -4.4375 19.046875 -3.28125 C 18.378906 -2.125 17.367188 -1.226562 16.015625 -0.59375 C 14.671875 0.0390625 13.015625 0.359375 11.046875 0.359375 Z M 11.046875 0.359375 "/></g></g></g></svg>