<svg xmlns="http://www.w3.org/2000/svg" xmlns:xlink="http://www.w3.org/1999/xlink" width="86" zoomAndPan="magnify" viewBox="0 0 64.5 43.499998" height="58" preserveAspectRatio="xMidYMid meet" version="1.0"><defs><clipPath id="2a8dacbcb1"><path d="M 8.769531 0 L 55.480469 0 L 55.480469 43 L 8.769531 43 Z M 8.769531 0 " clip-rule="nonzero"/></clipPath></defs><g clip-path="url(#2a8dacbcb1)"><path fill="#00d8ff" d="M 47.144531 14.242188 C 46.660156 14.078125 46.160156 13.921875 45.644531 13.773438 C 45.730469 13.429688 45.808594 13.089844 45.875 12.753906 C 47.011719 7.269531 46.269531 2.847656 43.734375 1.394531 C 41.300781 0 37.324219 1.453125 33.304688 4.933594 C 32.921875 5.265625 32.53125 5.621094 32.144531 5.992188 C 31.886719 5.746094 31.632812 5.507812 31.375 5.28125 C 27.164062 1.5625 22.945312 -0.00390625 20.410156 1.457031 C 17.980469 2.855469 17.261719 7.007812 18.285156 12.207031 C 18.382812 12.710938 18.496094 13.222656 18.628906 13.742188 C 18.03125 13.914062 17.453125 14.09375 16.902344 14.285156 C 11.96875 15.996094 8.816406 18.679688 8.816406 21.460938 C 8.816406 24.335938 12.199219 27.21875 17.339844 28.964844 C 17.746094 29.105469 18.167969 29.234375 18.601562 29.359375 C 18.460938 29.921875 18.335938 30.472656 18.234375 31.011719 C 17.257812 36.121094 18.019531 40.179688 20.445312 41.566406 C 22.945312 43.003906 27.148438 41.527344 31.238281 37.972656 C 31.5625 37.691406 31.886719 37.390625 32.210938 37.082031 C 32.632812 37.480469 33.054688 37.863281 33.46875 38.222656 C 37.433594 41.613281 41.347656 42.984375 43.765625 41.589844 C 46.265625 40.152344 47.082031 35.792969 46.023438 30.492188 C 45.945312 30.085938 45.847656 29.671875 45.746094 29.253906 C 46.039062 29.164062 46.332031 29.074219 46.613281 28.984375 C 51.957031 27.21875 55.433594 24.375 55.433594 21.460938 C 55.433594 18.667969 52.179688 15.96875 47.144531 14.242188 Z M 45.984375 27.101562 C 45.730469 27.1875 45.46875 27.265625 45.203125 27.34375 C 44.613281 25.488281 43.816406 23.511719 42.839844 21.46875 C 43.773438 19.476562 44.535156 17.527344 45.109375 15.679688 C 45.585938 15.820312 46.050781 15.964844 46.496094 16.117188 C 50.808594 17.59375 53.441406 19.777344 53.441406 21.460938 C 53.441406 23.253906 50.601562 25.582031 45.984375 27.101562 Z M 44.070312 30.875 C 44.539062 33.21875 44.605469 35.339844 44.292969 36.996094 C 44.015625 38.484375 43.457031 39.480469 42.769531 39.875 C 41.296875 40.722656 38.15625 39.621094 34.769531 36.722656 C 34.378906 36.386719 33.988281 36.03125 33.597656 35.65625 C 34.910156 34.230469 36.222656 32.566406 37.503906 30.722656 C 39.757812 30.523438 41.886719 30.199219 43.820312 29.753906 C 43.914062 30.136719 43.996094 30.507812 44.070312 30.875 Z M 24.710938 39.730469 C 23.273438 40.234375 22.128906 40.25 21.441406 39.851562 C 19.96875 39.007812 19.359375 35.75 20.191406 31.382812 C 20.289062 30.882812 20.402344 30.367188 20.53125 29.84375 C 22.441406 30.261719 24.554688 30.566406 26.8125 30.746094 C 28.105469 32.554688 29.457031 34.210938 30.816406 35.664062 C 30.519531 35.953125 30.222656 36.222656 29.925781 36.480469 C 28.117188 38.054688 26.308594 39.167969 24.710938 39.730469 Z M 17.984375 27.089844 C 15.710938 26.316406 13.835938 25.3125 12.546875 24.214844 C 11.390625 23.234375 10.808594 22.253906 10.808594 21.460938 C 10.808594 19.773438 13.339844 17.617188 17.558594 16.15625 C 18.070312 15.976562 18.609375 15.808594 19.164062 15.652344 C 19.746094 17.539062 20.511719 19.515625 21.4375 21.507812 C 20.5 23.535156 19.722656 25.539062 19.136719 27.449219 C 18.738281 27.335938 18.355469 27.214844 17.984375 27.089844 Z M 20.238281 11.828125 C 19.363281 7.371094 19.945312 4.011719 21.410156 3.167969 C 22.96875 2.273438 26.417969 3.550781 30.050781 6.761719 C 30.285156 6.96875 30.515625 7.183594 30.753906 7.40625 C 29.398438 8.851562 28.058594 10.5 26.78125 12.292969 C 24.585938 12.496094 22.488281 12.820312 20.558594 13.253906 C 20.4375 12.769531 20.332031 12.292969 20.238281 11.828125 Z M 40.347656 16.765625 C 39.886719 15.972656 39.414062 15.199219 38.929688 14.449219 C 40.417969 14.632812 41.839844 14.882812 43.179688 15.1875 C 42.78125 16.46875 42.277344 17.808594 41.6875 19.179688 C 41.265625 18.382812 40.816406 17.574219 40.347656 16.765625 Z M 32.148438 8.820312 C 33.066406 9.8125 33.984375 10.917969 34.890625 12.117188 C 33.976562 12.074219 33.054688 12.050781 32.125 12.050781 C 31.203125 12.050781 30.289062 12.070312 29.378906 12.113281 C 30.285156 10.925781 31.214844 9.824219 32.148438 8.820312 Z M 23.894531 16.78125 C 23.433594 17.574219 22.996094 18.375 22.578125 19.179688 C 22 17.808594 21.503906 16.464844 21.097656 15.164062 C 22.425781 14.871094 23.84375 14.628906 25.324219 14.445312 C 24.832031 15.203125 24.355469 15.984375 23.894531 16.78125 Z M 25.367188 28.617188 C 23.839844 28.449219 22.398438 28.21875 21.070312 27.933594 C 21.480469 26.609375 21.988281 25.238281 22.582031 23.839844 C 22.996094 24.640625 23.4375 25.441406 23.902344 26.238281 C 24.375 27.050781 24.863281 27.84375 25.367188 28.617188 Z M 32.199219 34.238281 C 31.257812 33.226562 30.316406 32.105469 29.398438 30.902344 C 30.289062 30.933594 31.199219 30.953125 32.125 30.953125 C 33.074219 30.953125 34.015625 30.933594 34.9375 30.890625 C 34.03125 32.117188 33.113281 33.242188 32.199219 34.238281 Z M 41.707031 23.765625 C 42.328125 25.179688 42.855469 26.546875 43.273438 27.847656 C 41.921875 28.152344 40.460938 28.398438 38.925781 28.585938 C 39.410156 27.820312 39.886719 27.035156 40.355469 26.222656 C 40.832031 25.40625 41.28125 24.585938 41.707031 23.765625 Z M 38.628906 25.234375 C 37.902344 26.492188 37.152344 27.691406 36.394531 28.824219 C 35.011719 28.921875 33.582031 28.972656 32.125 28.972656 C 30.671875 28.972656 29.261719 28.929688 27.902344 28.839844 C 27.113281 27.691406 26.347656 26.488281 25.625 25.246094 C 24.902344 24.003906 24.238281 22.753906 23.636719 21.507812 C 24.238281 20.261719 24.902344 19.007812 25.621094 17.769531 C 26.339844 16.527344 27.097656 15.332031 27.878906 14.191406 C 29.265625 14.085938 30.6875 14.03125 32.125 14.03125 C 33.570312 14.03125 34.992188 14.085938 36.375 14.191406 C 37.148438 15.324219 37.902344 16.515625 38.625 17.757812 C 39.355469 19.015625 40.027344 20.261719 40.632812 21.480469 C 40.027344 22.722656 39.359375 23.980469 38.628906 25.234375 Z M 42.738281 3.109375 C 44.300781 4.007812 44.90625 7.617188 43.925781 12.355469 C 43.863281 12.65625 43.792969 12.964844 43.714844 13.277344 C 41.78125 12.832031 39.683594 12.5 37.484375 12.296875 C 36.203125 10.480469 34.875 8.832031 33.542969 7.402344 C 33.898438 7.0625 34.257812 6.734375 34.613281 6.425781 C 38.054688 3.445312 41.273438 2.269531 42.738281 3.109375 Z M 32.125 17.320312 C 34.421875 17.320312 36.289062 19.171875 36.289062 21.460938 C 36.289062 23.746094 34.421875 25.601562 32.125 25.601562 C 29.828125 25.601562 27.960938 23.746094 27.960938 21.460938 C 27.960938 19.171875 29.828125 17.320312 32.125 17.320312 Z M 32.125 17.320312 " fill-opacity="1" fill-rule="nonzero"/></g></svg>