<svg xmlns="http://www.w3.org/2000/svg" xmlns:xlink="http://www.w3.org/1999/xlink" width="262" zoomAndPan="magnify" viewBox="0 0 196.5 42" height="56" preserveAspectRatio="xMidYMid meet" version="1.0"><defs><g/></defs><g fill="#ffffff" fill-opacity="1"><g transform="translate(3.609072, 31.422067)"><g><path d="M 3.234375 0 L 3.234375 -24.921875 L 13.25 -24.921875 C 15.820312 -24.921875 17.765625 -24.328125 19.078125 -23.140625 C 20.390625 -21.953125 21.046875 -20.3125 21.046875 -18.21875 C 21.046875 -16.707031 20.660156 -15.46875 19.890625 -14.5 C 19.128906 -13.539062 17.988281 -12.800781 16.46875 -12.28125 L 16.46875 -11.9375 C 17.25 -11.59375 17.878906 -11.082031 18.359375 -10.40625 C 18.847656 -9.738281 19.304688 -8.75 19.734375 -7.4375 L 22.21875 0 L 17.15625 0 L 14.71875 -7.453125 C 14.46875 -8.203125 14.1875 -8.78125 13.875 -9.1875 C 13.5625 -9.601562 13.164062 -9.90625 12.6875 -10.09375 C 12.207031 -10.28125 11.582031 -10.375 10.8125 -10.375 L 8.171875 -10.375 L 8.171875 0 Z M 12.640625 -14.28125 C 15.023438 -14.28125 16.21875 -15.394531 16.21875 -17.625 C 16.21875 -19.882812 15.023438 -21.015625 12.640625 -21.015625 L 8.171875 -21.015625 L 8.171875 -14.28125 Z M 12.640625 -14.28125 "/></g></g><g transform="translate(26.913089, 31.422067)"><g><path d="M 18.578125 -8.328125 L 6.5 -8.328125 C 6.632812 -6.691406 7.097656 -5.5 7.890625 -4.75 C 8.679688 -4.007812 9.765625 -3.640625 11.140625 -3.640625 C 12.222656 -3.640625 13.097656 -3.84375 13.765625 -4.25 C 14.441406 -4.65625 14.984375 -5.265625 15.390625 -6.078125 L 15.75 -6.078125 L 18.890625 -4.078125 C 18.273438 -2.753906 17.347656 -1.679688 16.109375 -0.859375 C 14.867188 -0.046875 13.210938 0.359375 11.140625 0.359375 C 9.203125 0.359375 7.523438 -0.0078125 6.109375 -0.75 C 4.691406 -1.488281 3.597656 -2.585938 2.828125 -4.046875 C 2.066406 -5.503906 1.6875 -7.285156 1.6875 -9.390625 C 1.6875 -11.523438 2.085938 -13.328125 2.890625 -14.796875 C 3.703125 -16.265625 4.796875 -17.359375 6.171875 -18.078125 C 7.546875 -18.796875 9.09375 -19.15625 10.8125 -19.15625 C 13.46875 -19.15625 15.5 -18.453125 16.90625 -17.046875 C 18.320312 -15.640625 19.03125 -13.570312 19.03125 -10.84375 C 19.03125 -9.851562 19 -9.085938 18.9375 -8.546875 Z M 14.515625 -11.390625 C 14.472656 -12.816406 14.140625 -13.859375 13.515625 -14.515625 C 12.898438 -15.171875 12 -15.5 10.8125 -15.5 C 8.425781 -15.5 7.019531 -14.128906 6.59375 -11.390625 Z M 14.515625 -11.390625 "/></g></g><g transform="translate(47.353115, 31.422067)"><g><path d="M 7.328125 0.359375 C 6.117188 0.359375 5.070312 0.140625 4.1875 -0.296875 C 3.300781 -0.742188 2.617188 -1.394531 2.140625 -2.25 C 1.671875 -3.113281 1.4375 -4.148438 1.4375 -5.359375 C 1.4375 -6.460938 1.671875 -7.390625 2.140625 -8.140625 C 2.617188 -8.898438 3.359375 -9.519531 4.359375 -10 C 5.359375 -10.488281 6.664062 -10.863281 8.28125 -11.125 C 9.40625 -11.3125 10.257812 -11.507812 10.84375 -11.71875 C 11.425781 -11.9375 11.820312 -12.179688 12.03125 -12.453125 C 12.238281 -12.734375 12.34375 -13.082031 12.34375 -13.5 C 12.34375 -14.101562 12.128906 -14.5625 11.703125 -14.875 C 11.285156 -15.195312 10.585938 -15.359375 9.609375 -15.359375 C 8.566406 -15.359375 7.570312 -15.125 6.625 -14.65625 C 5.6875 -14.1875 4.867188 -13.570312 4.171875 -12.8125 L 3.828125 -12.8125 L 1.859375 -15.796875 C 2.816406 -16.859375 3.984375 -17.679688 5.359375 -18.265625 C 6.734375 -18.859375 8.226562 -19.15625 9.84375 -19.15625 C 12.332031 -19.15625 14.132812 -18.625 15.25 -17.5625 C 16.363281 -16.507812 16.921875 -15.015625 16.921875 -13.078125 L 16.921875 -4.90625 C 16.921875 -4.0625 17.289062 -3.640625 18.03125 -3.640625 C 18.3125 -3.640625 18.59375 -3.691406 18.875 -3.796875 L 19.109375 -3.734375 L 19.453125 -0.4375 C 19.191406 -0.269531 18.828125 -0.128906 18.359375 -0.015625 C 17.890625 0.0859375 17.378906 0.140625 16.828125 0.140625 C 15.703125 0.140625 14.820312 -0.0703125 14.1875 -0.5 C 13.5625 -0.9375 13.109375 -1.617188 12.828125 -2.546875 L 12.46875 -2.578125 C 11.550781 -0.617188 9.835938 0.359375 7.328125 0.359375 Z M 8.828125 -3.171875 C 9.921875 -3.171875 10.789062 -3.535156 11.4375 -4.265625 C 12.09375 -5.003906 12.421875 -6.023438 12.421875 -7.328125 L 12.421875 -9.234375 L 12.09375 -9.3125 C 11.8125 -9.082031 11.441406 -8.890625 10.984375 -8.734375 C 10.523438 -8.578125 9.863281 -8.425781 9 -8.28125 C 7.976562 -8.113281 7.242188 -7.820312 6.796875 -7.40625 C 6.347656 -6.988281 6.125 -6.398438 6.125 -5.640625 C 6.125 -4.835938 6.359375 -4.222656 6.828125 -3.796875 C 7.304688 -3.378906 7.972656 -3.171875 8.828125 -3.171875 Z M 8.828125 -3.171875 "/></g></g><g transform="translate(67.179429, 31.422067)"><g><path d="M 10.953125 0.359375 C 9.140625 0.359375 7.535156 -0.015625 6.140625 -0.765625 C 4.742188 -1.523438 3.648438 -2.640625 2.859375 -4.109375 C 2.078125 -5.578125 1.6875 -7.335938 1.6875 -9.390625 C 1.6875 -11.460938 2.078125 -13.226562 2.859375 -14.6875 C 3.648438 -16.15625 4.738281 -17.265625 6.125 -18.015625 C 7.507812 -18.773438 9.09375 -19.15625 10.875 -19.15625 C 14.84375 -19.15625 17.382812 -17.71875 18.5 -14.84375 L 15.25 -12.53125 L 14.890625 -12.53125 C 14.503906 -13.414062 14 -14.070312 13.375 -14.5 C 12.757812 -14.9375 11.925781 -15.15625 10.875 -15.15625 C 9.507812 -15.15625 8.445312 -14.679688 7.6875 -13.734375 C 6.925781 -12.796875 6.546875 -11.347656 6.546875 -9.390625 C 6.546875 -7.460938 6.929688 -6.019531 7.703125 -5.0625 C 8.472656 -4.113281 9.554688 -3.640625 10.953125 -3.640625 C 11.984375 -3.640625 12.851562 -3.914062 13.5625 -4.46875 C 14.269531 -5.019531 14.773438 -5.816406 15.078125 -6.859375 L 15.4375 -6.890625 L 18.796875 -5.046875 C 18.316406 -3.453125 17.429688 -2.148438 16.140625 -1.140625 C 14.859375 -0.140625 13.128906 0.359375 10.953125 0.359375 Z M 10.953125 0.359375 "/></g></g><g transform="translate(86.562506, 31.422067)"><g><path d="M 12.96875 -4.484375 L 14.203125 -0.984375 C 13.691406 -0.566406 13.046875 -0.238281 12.265625 0 C 11.492188 0.238281 10.617188 0.359375 9.640625 0.359375 C 7.609375 0.359375 6.0625 -0.191406 5 -1.296875 C 3.945312 -2.410156 3.421875 -4.023438 3.421875 -6.140625 L 3.421875 -15.0625 L 0.5625 -15.0625 L 0.5625 -18.8125 L 3.421875 -18.8125 L 3.421875 -22.484375 L 8.140625 -23.25 L 8.140625 -18.8125 L 13.484375 -18.8125 L 13.484375 -15.0625 L 8.140625 -15.0625 L 8.140625 -6.484375 C 8.140625 -5.546875 8.332031 -4.863281 8.71875 -4.4375 C 9.113281 -4.007812 9.675781 -3.796875 10.40625 -3.796875 C 11.25 -3.796875 11.984375 -4.023438 12.609375 -4.484375 Z M 12.96875 -4.484375 "/></g></g><g transform="translate(101.172266, 31.422067)"><g><path d="M 8.734375 0.359375 C 6.617188 0.359375 4.859375 -0.0390625 3.453125 -0.84375 C 2.054688 -1.644531 1.039062 -2.722656 0.40625 -4.078125 L 3.1875 -7.453125 L 3.609375 -7.453125 C 4.066406 -6.359375 4.710938 -5.492188 5.546875 -4.859375 C 6.378906 -4.234375 7.347656 -3.921875 8.453125 -3.921875 C 9.691406 -3.921875 10.613281 -4.28125 11.21875 -5 C 11.820312 -5.71875 12.125 -6.890625 12.125 -8.515625 L 12.125 -24.921875 L 17.03125 -24.921875 L 17.03125 -8.4375 C 17.03125 -5.425781 16.34375 -3.207031 14.96875 -1.78125 C 13.601562 -0.351562 11.523438 0.359375 8.734375 0.359375 Z M 8.734375 0.359375 "/></g></g><g transform="translate(121.288389, 31.422067)"><g><path d="M 11.046875 0.359375 C 9.316406 0.359375 7.78125 0.144531 6.4375 -0.28125 C 5.09375 -0.707031 3.96875 -1.265625 3.0625 -1.953125 C 2.164062 -2.648438 1.476562 -3.414062 1 -4.25 L 3.71875 -7.546875 L 4.140625 -7.546875 C 4.890625 -6.429688 5.84375 -5.546875 7 -4.890625 C 8.15625 -4.234375 9.503906 -3.90625 11.046875 -3.90625 C 12.359375 -3.90625 13.347656 -4.179688 14.015625 -4.734375 C 14.691406 -5.296875 15.03125 -6.066406 15.03125 -7.046875 C 15.03125 -7.628906 14.921875 -8.117188 14.703125 -8.515625 C 14.492188 -8.921875 14.140625 -9.265625 13.640625 -9.546875 C 13.140625 -9.828125 12.460938 -10.070312 11.609375 -10.28125 L 8.40625 -11.015625 C 6.164062 -11.523438 4.492188 -12.375 3.390625 -13.5625 C 2.296875 -14.75 1.75 -16.289062 1.75 -18.1875 C 1.75 -19.59375 2.101562 -20.828125 2.8125 -21.890625 C 3.519531 -22.960938 4.546875 -23.796875 5.890625 -24.390625 C 7.234375 -24.984375 8.84375 -25.28125 10.71875 -25.28125 C 12.632812 -25.28125 14.273438 -25.023438 15.640625 -24.515625 C 17.015625 -24.015625 18.175781 -23.238281 19.125 -22.1875 L 16.6875 -18.84375 L 16.265625 -18.84375 C 15.554688 -19.582031 14.742188 -20.132812 13.828125 -20.5 C 12.921875 -20.875 11.882812 -21.0625 10.71875 -21.0625 C 9.363281 -21.0625 8.332031 -20.820312 7.625 -20.34375 C 6.925781 -19.875 6.578125 -19.21875 6.578125 -18.375 C 6.578125 -17.59375 6.820312 -16.96875 7.3125 -16.5 C 7.8125 -16.03125 8.671875 -15.664062 9.890625 -15.40625 L 13.15625 -14.71875 C 15.570312 -14.207031 17.328125 -13.34375 18.421875 -12.125 C 19.515625 -10.90625 20.0625 -9.3125 20.0625 -7.34375 C 20.0625 -5.789062 19.722656 -4.4375 19.046875 -3.28125 C 18.378906 -2.125 17.367188 -1.226562 16.015625 -0.59375 C 14.671875 0.0390625 13.015625 0.359375 11.046875 0.359375 Z M 11.046875 0.359375 "/></g></g></g></svg>