<svg xmlns="http://www.w3.org/2000/svg" xmlns:xlink="http://www.w3.org/1999/xlink" width="262" zoomAndPan="magnify" viewBox="0 0 196.5 42" height="56" preserveAspectRatio="xMidYMid meet" version="1.0"><defs><g/><clipPath id="b54fef16a9"><path d="M 94 14 L 115 14 L 115 41.023438 L 94 41.023438 Z M 94 14 " clip-rule="nonzero"/></clipPath></defs><g fill="#ffffff" fill-opacity="1"><g transform="translate(2.040697, 33.588374)"><g><path d="M 10.953125 0.359375 C 9.234375 0.359375 7.707031 0.148438 6.375 -0.265625 C 5.039062 -0.691406 3.925781 -1.25 3.03125 -1.9375 C 2.144531 -2.625 1.46875 -3.378906 1 -4.203125 L 3.6875 -7.484375 L 4.109375 -7.484375 C 4.847656 -6.378906 5.789062 -5.5 6.9375 -4.84375 C 8.082031 -4.195312 9.421875 -3.875 10.953125 -3.875 C 12.253906 -3.875 13.238281 -4.148438 13.90625 -4.703125 C 14.570312 -5.253906 14.90625 -6.015625 14.90625 -6.984375 C 14.90625 -7.566406 14.796875 -8.054688 14.578125 -8.453125 C 14.367188 -8.847656 14.015625 -9.1875 13.515625 -9.46875 C 13.023438 -9.75 12.359375 -9.988281 11.515625 -10.1875 L 8.328125 -10.921875 C 6.109375 -11.421875 4.453125 -12.257812 3.359375 -13.4375 C 2.273438 -14.613281 1.734375 -16.144531 1.734375 -18.03125 C 1.734375 -19.425781 2.082031 -20.648438 2.78125 -21.703125 C 3.488281 -22.765625 4.507812 -23.585938 5.84375 -24.171875 C 7.175781 -24.765625 8.769531 -25.0625 10.625 -25.0625 C 12.53125 -25.0625 14.160156 -24.8125 15.515625 -24.3125 C 16.878906 -23.8125 18.023438 -23.039062 18.953125 -22 L 16.546875 -18.6875 L 16.125 -18.6875 C 15.425781 -19.414062 14.625 -19.960938 13.71875 -20.328125 C 12.820312 -20.703125 11.789062 -20.890625 10.625 -20.890625 C 9.289062 -20.890625 8.269531 -20.648438 7.5625 -20.171875 C 6.863281 -19.703125 6.515625 -19.050781 6.515625 -18.21875 C 6.515625 -17.4375 6.757812 -16.816406 7.25 -16.359375 C 7.75 -15.898438 8.597656 -15.539062 9.796875 -15.28125 L 13.046875 -14.59375 C 15.441406 -14.09375 17.179688 -13.234375 18.265625 -12.015625 C 19.347656 -10.804688 19.890625 -9.226562 19.890625 -7.28125 C 19.890625 -5.738281 19.554688 -4.394531 18.890625 -3.25 C 18.222656 -2.101562 17.21875 -1.210938 15.875 -0.578125 C 14.539062 0.046875 12.898438 0.359375 10.953125 0.359375 Z M 10.953125 0.359375 "/></g></g></g><g fill="#ffffff" fill-opacity="1"><g transform="translate(23.266505, 33.588374)"><g><path d="M 18.421875 -8.265625 L 6.4375 -8.265625 C 6.570312 -6.640625 7.03125 -5.457031 7.8125 -4.71875 C 8.601562 -3.976562 9.679688 -3.609375 11.046875 -3.609375 C 12.117188 -3.609375 12.988281 -3.804688 13.65625 -4.203125 C 14.320312 -4.609375 14.859375 -5.21875 15.265625 -6.03125 L 15.609375 -6.03125 L 18.71875 -4.03125 C 18.113281 -2.726562 17.195312 -1.671875 15.96875 -0.859375 C 14.738281 -0.046875 13.097656 0.359375 11.046875 0.359375 C 9.117188 0.359375 7.453125 -0.00390625 6.046875 -0.734375 C 4.648438 -1.472656 3.570312 -2.566406 2.8125 -4.015625 C 2.050781 -5.460938 1.671875 -7.226562 1.671875 -9.3125 C 1.671875 -11.425781 2.070312 -13.207031 2.875 -14.65625 C 3.675781 -16.113281 4.753906 -17.203125 6.109375 -17.921875 C 7.472656 -18.640625 9.007812 -19 10.71875 -19 C 13.351562 -19 15.367188 -18.296875 16.765625 -16.890625 C 18.171875 -15.492188 18.875 -13.445312 18.875 -10.75 C 18.875 -9.769531 18.84375 -9.007812 18.78125 -8.46875 Z M 14.390625 -11.28125 C 14.347656 -12.707031 14.019531 -13.742188 13.40625 -14.390625 C 12.789062 -15.035156 11.894531 -15.359375 10.71875 -15.359375 C 8.351562 -15.359375 6.960938 -14 6.546875 -11.28125 Z M 14.390625 -11.28125 "/></g></g></g><g fill="#ffffff" fill-opacity="1"><g transform="translate(43.529046, 33.588374)"><g><path d="M 2.6875 0 L 2.6875 -18.640625 L 7.1875 -18.640625 L 7.1875 -15.90625 L 7.53125 -15.8125 C 8.695312 -17.9375 10.582031 -19 13.1875 -19 C 15.332031 -19 16.910156 -18.410156 17.921875 -17.234375 C 18.929688 -16.066406 19.4375 -14.359375 19.4375 -12.109375 L 19.4375 0 L 14.75 0 L 14.75 -11.546875 C 14.75 -12.785156 14.5 -13.675781 14 -14.21875 C 13.507812 -14.769531 12.71875 -15.046875 11.625 -15.046875 C 10.28125 -15.046875 9.234375 -14.609375 8.484375 -13.734375 C 7.742188 -12.867188 7.375 -11.507812 7.375 -9.65625 L 7.375 0 Z M 2.6875 0 "/></g></g></g><g fill="#ffffff" fill-opacity="1"><g transform="translate(65.363238, 33.588374)"><g><path d="M 12.859375 -4.4375 L 14.078125 -0.984375 C 13.566406 -0.566406 12.925781 -0.238281 12.15625 0 C 11.394531 0.238281 10.53125 0.359375 9.5625 0.359375 C 7.550781 0.359375 6.019531 -0.1875 4.96875 -1.28125 C 3.914062 -2.382812 3.390625 -3.984375 3.390625 -6.078125 L 3.390625 -14.9375 L 0.5625 -14.9375 L 0.5625 -18.65625 L 3.390625 -18.65625 L 3.390625 -22.296875 L 8.078125 -23.046875 L 8.078125 -18.65625 L 13.375 -18.65625 L 13.375 -14.9375 L 8.078125 -14.9375 L 8.078125 -6.421875 C 8.078125 -5.492188 8.269531 -4.816406 8.65625 -4.390625 C 9.039062 -3.972656 9.597656 -3.765625 10.328125 -3.765625 C 11.160156 -3.765625 11.882812 -3.988281 12.5 -4.4375 Z M 12.859375 -4.4375 "/></g></g></g><g fill="#ffffff" fill-opacity="1"><g transform="translate(79.84614, 33.588374)"><g><path d="M 2.6875 0 L 2.6875 -18.640625 L 7.234375 -18.640625 L 7.234375 -15.875 L 7.59375 -15.796875 C 8.039062 -16.835938 8.628906 -17.597656 9.359375 -18.078125 C 10.085938 -18.566406 10.976562 -18.8125 12.03125 -18.8125 C 13.09375 -18.8125 13.898438 -18.628906 14.453125 -18.265625 L 13.65625 -14.234375 L 13.296875 -14.15625 C 12.992188 -14.28125 12.703125 -14.367188 12.421875 -14.421875 C 12.140625 -14.484375 11.796875 -14.515625 11.390625 -14.515625 C 10.085938 -14.515625 9.09375 -14.054688 8.40625 -13.140625 C 7.71875 -12.222656 7.375 -10.75 7.375 -8.71875 L 7.375 0 Z M 2.6875 0 "/></g></g></g><g clip-path="url(#b54fef16a9)"><g fill="#ffffff" fill-opacity="1"><g transform="translate(94.464238, 33.588374)"><g><path d="M 4.125 7.90625 C 3.320312 7.90625 2.597656 7.84375 1.953125 7.71875 C 1.304688 7.59375 0.78125 7.429688 0.375 7.234375 L 1.109375 3.453125 L 1.421875 3.34375 C 1.703125 3.488281 2.050781 3.609375 2.46875 3.703125 C 2.882812 3.796875 3.3125 3.84375 3.75 3.84375 C 4.507812 3.84375 5.140625 3.742188 5.640625 3.546875 C 6.140625 3.347656 6.5625 3.019531 6.90625 2.5625 C 7.257812 2.101562 7.570312 1.46875 7.84375 0.65625 L 0.40625 -18.640625 L 5.3125 -18.640625 L 9.9375 -5.671875 L 10.34375 -5.671875 L 14.859375 -18.640625 L 19.625 -18.640625 L 12.140625 1.171875 C 11.535156 2.765625 10.875 4.046875 10.15625 5.015625 C 9.445312 5.992188 8.601562 6.71875 7.625 7.1875 C 6.65625 7.664062 5.488281 7.90625 4.125 7.90625 Z M 4.125 7.90625 "/></g></g></g></g></svg>