<svg xmlns="http://www.w3.org/2000/svg" xmlns:xlink="http://www.w3.org/1999/xlink" width="86" zoomAndPan="magnify" viewBox="0 0 64.5 43.499998" height="58" preserveAspectRatio="xMidYMid meet" version="1.0"><defs><clipPath id="4521ea6ab0"><path d="M 0.121094 2.332031 L 63.886719 2.332031 L 63.886719 40.890625 L 0.121094 40.890625 Z M 0.121094 2.332031 " clip-rule="nonzero"/></clipPath><clipPath id="9f784240c3"><path d="M 23.402344 28.917969 L 24.882812 28.917969 L 24.882812 30.402344 L 23.402344 30.402344 Z M 23.402344 28.917969 " clip-rule="nonzero"/></clipPath></defs><g clip-path="url(#4521ea6ab0)"><path fill="#06b6d4" d="M 32.003906 2.359375 C 23.488281 2.359375 18.195312 6.601562 16.0625 15.113281 C 19.25 10.875 22.980469 9.28125 27.222656 10.332031 C 29.644531 10.9375 31.398438 12.691406 33.3125 14.636719 C 36.4375 17.824219 39.976562 21.492188 47.945312 21.492188 C 56.460938 21.492188 61.753906 17.25 63.890625 8.738281 C 60.703125 12.976562 56.96875 14.574219 52.730469 13.519531 C 50.304688 12.914062 48.585938 11.160156 46.640625 9.214844 C 43.515625 6.027344 39.976562 2.359375 32.003906 2.359375 Z M 16.0625 21.492188 C 7.546875 21.492188 2.253906 25.734375 0.117188 34.246094 C 3.304688 30.003906 7.035156 28.410156 11.277344 29.464844 C 13.699219 30.070312 15.421875 31.824219 17.367188 33.769531 C 20.492188 36.957031 24.03125 40.625 32.003906 40.625 C 40.515625 40.625 45.8125 36.382812 47.945312 27.871094 C 44.757812 32.109375 41.027344 33.703125 36.785156 32.652344 C 34.363281 32.046875 32.640625 30.292969 30.695312 28.347656 C 27.570312 25.160156 24.03125 21.492188 16.0625 21.492188 Z M 16.0625 21.492188 " fill-opacity="1" fill-rule="nonzero"/></g><g clip-path="url(#9f784240c3)"><path fill="#06b6d4" d="M 24.582031 29.507812 C 24.582031 29.671875 24.527344 29.8125 24.410156 29.925781 C 24.296875 30.042969 24.15625 30.097656 23.992188 30.097656 C 23.828125 30.097656 23.691406 30.042969 23.574219 29.925781 C 23.460938 29.8125 23.402344 29.671875 23.402344 29.507812 C 23.402344 29.34375 23.460938 29.207031 23.574219 29.089844 C 23.691406 28.976562 23.828125 28.917969 23.992188 28.917969 C 24.15625 28.917969 24.296875 28.976562 24.410156 29.089844 C 24.527344 29.207031 24.582031 29.34375 24.582031 29.507812 Z M 24.582031 29.507812 " fill-opacity="1" fill-rule="nonzero"/></g></svg>