<svg xmlns="http://www.w3.org/2000/svg" xmlns:xlink="http://www.w3.org/1999/xlink" width="262" zoomAndPan="magnify" viewBox="0 0 196.5 42" height="56" preserveAspectRatio="xMidYMid meet" version="1.0"><defs><g/><clipPath id="fad2aebfa8"><path d="M 2.039062 4 L 143 4 L 143 32 L 2.039062 32 Z M 2.039062 4 " clip-rule="nonzero"/></clipPath></defs><g clip-path="url(#fad2aebfa8)"><g fill="#ffffff" fill-opacity="1"><g transform="translate(2.040697, 31.422067)"><g><path d="M 19.96875 -24.921875 L 19.96875 -20.78125 L 12.78125 -20.78125 L 12.78125 0 L 7.875 0 L 7.875 -20.78125 L 0.6875 -20.78125 L 0.6875 -24.921875 Z M 19.96875 -24.921875 "/></g></g><g transform="translate(22.702341, 31.422067)"><g><path d="M 7.328125 0.359375 C 6.117188 0.359375 5.070312 0.140625 4.1875 -0.296875 C 3.300781 -0.742188 2.617188 -1.394531 2.140625 -2.25 C 1.671875 -3.113281 1.4375 -4.148438 1.4375 -5.359375 C 1.4375 -6.460938 1.671875 -7.390625 2.140625 -8.140625 C 2.617188 -8.898438 3.359375 -9.519531 4.359375 -10 C 5.359375 -10.488281 6.664062 -10.863281 8.28125 -11.125 C 9.40625 -11.3125 10.257812 -11.507812 10.84375 -11.71875 C 11.425781 -11.9375 11.820312 -12.179688 12.03125 -12.453125 C 12.238281 -12.734375 12.34375 -13.082031 12.34375 -13.5 C 12.34375 -14.101562 12.128906 -14.5625 11.703125 -14.875 C 11.285156 -15.195312 10.585938 -15.359375 9.609375 -15.359375 C 8.566406 -15.359375 7.570312 -15.125 6.625 -14.65625 C 5.6875 -14.1875 4.867188 -13.570312 4.171875 -12.8125 L 3.828125 -12.8125 L 1.859375 -15.796875 C 2.816406 -16.859375 3.984375 -17.679688 5.359375 -18.265625 C 6.734375 -18.859375 8.226562 -19.15625 9.84375 -19.15625 C 12.332031 -19.15625 14.132812 -18.625 15.25 -17.5625 C 16.363281 -16.507812 16.921875 -15.015625 16.921875 -13.078125 L 16.921875 -4.90625 C 16.921875 -4.0625 17.289062 -3.640625 18.03125 -3.640625 C 18.3125 -3.640625 18.59375 -3.691406 18.875 -3.796875 L 19.109375 -3.734375 L 19.453125 -0.4375 C 19.191406 -0.269531 18.828125 -0.128906 18.359375 -0.015625 C 17.890625 0.0859375 17.378906 0.140625 16.828125 0.140625 C 15.703125 0.140625 14.820312 -0.0703125 14.1875 -0.5 C 13.5625 -0.9375 13.109375 -1.617188 12.828125 -2.546875 L 12.46875 -2.578125 C 11.550781 -0.617188 9.835938 0.359375 7.328125 0.359375 Z M 8.828125 -3.171875 C 9.921875 -3.171875 10.789062 -3.535156 11.4375 -4.265625 C 12.09375 -5.003906 12.421875 -6.023438 12.421875 -7.328125 L 12.421875 -9.234375 L 12.09375 -9.3125 C 11.8125 -9.082031 11.441406 -8.890625 10.984375 -8.734375 C 10.523438 -8.578125 9.863281 -8.425781 9 -8.28125 C 7.976562 -8.113281 7.242188 -7.820312 6.796875 -7.40625 C 6.347656 -6.988281 6.125 -6.398438 6.125 -5.640625 C 6.125 -4.835938 6.359375 -4.222656 6.828125 -3.796875 C 7.304688 -3.378906 7.972656 -3.171875 8.828125 -3.171875 Z M 8.828125 -3.171875 "/></g></g><g transform="translate(42.528655, 31.422067)"><g><path d="M 5.0625 -21.046875 C 4.207031 -21.046875 3.515625 -21.300781 2.984375 -21.8125 C 2.453125 -22.332031 2.1875 -23.003906 2.1875 -23.828125 C 2.1875 -24.628906 2.453125 -25.289062 2.984375 -25.8125 C 3.515625 -26.332031 4.207031 -26.59375 5.0625 -26.59375 C 5.632812 -26.59375 6.140625 -26.472656 6.578125 -26.234375 C 7.023438 -25.992188 7.367188 -25.664062 7.609375 -25.25 C 7.859375 -24.832031 7.984375 -24.359375 7.984375 -23.828125 C 7.984375 -23.296875 7.859375 -22.816406 7.609375 -22.390625 C 7.367188 -21.972656 7.023438 -21.644531 6.578125 -21.40625 C 6.140625 -21.164062 5.632812 -21.046875 5.0625 -21.046875 Z M 2.703125 0 L 2.703125 -18.796875 L 7.4375 -18.796875 L 7.4375 0 Z M 2.703125 0 "/></g></g><g transform="translate(52.654906, 31.422067)"><g><path d="M 7.8125 0.359375 C 6.113281 0.359375 4.816406 -0.0976562 3.921875 -1.015625 C 3.035156 -1.929688 2.59375 -3.320312 2.59375 -5.1875 L 2.59375 -26.34375 L 7.3125 -26.34375 L 7.3125 -5.375 C 7.3125 -4.21875 7.789062 -3.640625 8.75 -3.640625 C 9.019531 -3.640625 9.304688 -3.6875 9.609375 -3.78125 L 9.84375 -3.71875 L 10.28125 -0.078125 C 10.019531 0.0546875 9.671875 0.160156 9.234375 0.234375 C 8.804688 0.316406 8.332031 0.359375 7.8125 0.359375 Z M 7.8125 0.359375 "/></g></g><g transform="translate(63.46306, 31.422067)"><g><path d="M 10.09375 0 L 5.140625 0 L 0.6875 -18.796875 L 5.0625 -18.796875 L 7.828125 -6.078125 L 8.1875 -6.078125 L 11.765625 -18.796875 L 15.84375 -18.796875 L 19.546875 -6.078125 L 19.90625 -6.078125 L 22.5625 -18.796875 L 26.828125 -18.796875 L 22.40625 0 L 17.453125 0 L 13.890625 -12.796875 L 13.53125 -12.796875 Z M 10.09375 0 "/></g></g><g transform="translate(90.960777, 31.422067)"><g><path d="M 5.0625 -21.046875 C 4.207031 -21.046875 3.515625 -21.300781 2.984375 -21.8125 C 2.453125 -22.332031 2.1875 -23.003906 2.1875 -23.828125 C 2.1875 -24.628906 2.453125 -25.289062 2.984375 -25.8125 C 3.515625 -26.332031 4.207031 -26.59375 5.0625 -26.59375 C 5.632812 -26.59375 6.140625 -26.472656 6.578125 -26.234375 C 7.023438 -25.992188 7.367188 -25.664062 7.609375 -25.25 C 7.859375 -24.832031 7.984375 -24.359375 7.984375 -23.828125 C 7.984375 -23.296875 7.859375 -22.816406 7.609375 -22.390625 C 7.367188 -21.972656 7.023438 -21.644531 6.578125 -21.40625 C 6.140625 -21.164062 5.632812 -21.046875 5.0625 -21.046875 Z M 2.703125 0 L 2.703125 -18.796875 L 7.4375 -18.796875 L 7.4375 0 Z M 2.703125 0 "/></g></g><g transform="translate(101.087028, 31.422067)"><g><path d="M 2.703125 0 L 2.703125 -18.796875 L 7.25 -18.796875 L 7.25 -16.03125 L 7.609375 -15.953125 C 8.773438 -18.085938 10.671875 -19.15625 13.296875 -19.15625 C 15.460938 -19.15625 17.050781 -18.5625 18.0625 -17.375 C 19.082031 -16.195312 19.59375 -14.476562 19.59375 -12.21875 L 19.59375 0 L 14.875 0 L 14.875 -11.640625 C 14.875 -12.890625 14.625 -13.789062 14.125 -14.34375 C 13.625 -14.894531 12.820312 -15.171875 11.71875 -15.171875 C 10.375 -15.171875 9.320312 -14.734375 8.5625 -13.859375 C 7.8125 -12.984375 7.4375 -11.609375 7.4375 -9.734375 L 7.4375 0 Z M 2.703125 0 "/></g></g><g transform="translate(123.112478, 31.422067)"><g><path d="M 9.28125 0.359375 C 7.800781 0.359375 6.488281 0 5.34375 -0.71875 C 4.195312 -1.445312 3.300781 -2.539062 2.65625 -4 C 2.007812 -5.457031 1.6875 -7.253906 1.6875 -9.390625 C 1.6875 -11.535156 2.019531 -13.335938 2.6875 -14.796875 C 3.351562 -16.265625 4.269531 -17.359375 5.4375 -18.078125 C 6.613281 -18.796875 7.976562 -19.15625 9.53125 -19.15625 C 10.695312 -19.15625 11.707031 -18.953125 12.5625 -18.546875 C 13.425781 -18.148438 14.15625 -17.523438 14.75 -16.671875 L 15.09375 -16.75 L 15.09375 -26.34375 L 19.828125 -26.34375 L 19.828125 0 L 15.09375 0 L 15.09375 -2.4375 L 14.75 -2.5 C 14.21875 -1.613281 13.5 -0.914062 12.59375 -0.40625 C 11.6875 0.101562 10.582031 0.359375 9.28125 0.359375 Z M 10.828125 -3.640625 C 12.148438 -3.640625 13.195312 -4.113281 13.96875 -5.0625 C 14.75 -6.019531 15.140625 -7.460938 15.140625 -9.390625 C 15.140625 -11.316406 14.75 -12.757812 13.96875 -13.71875 C 13.195312 -14.675781 12.148438 -15.15625 10.828125 -15.15625 C 9.441406 -15.15625 8.378906 -14.691406 7.640625 -13.765625 C 6.910156 -12.835938 6.546875 -11.378906 6.546875 -9.390625 C 6.546875 -7.410156 6.910156 -5.957031 7.640625 -5.03125 C 8.378906 -4.101562 9.441406 -3.640625 10.828125 -3.640625 Z M 10.828125 -3.640625 "/></g></g></g></g></svg>