<svg xmlns="http://www.w3.org/2000/svg" xmlns:xlink="http://www.w3.org/1999/xlink" width="262" zoomAndPan="magnify" viewBox="0 0 196.5 42" height="56" preserveAspectRatio="xMidYMid meet" version="1.0"><defs><g/><clipPath id="7f36066fa3"><path d="M 2.039062 8 L 23 8 L 23 34 L 2.039062 34 Z M 2.039062 8 " clip-rule="nonzero"/></clipPath></defs><g clip-path="url(#7f36066fa3)"><g fill="#ffffff" fill-opacity="1"><g transform="translate(2.040697, 33.869123)"><g><path d="M 19.96875 -24.921875 L 19.96875 -20.78125 L 12.78125 -20.78125 L 12.78125 0 L 7.875 0 L 7.875 -20.78125 L 0.6875 -20.78125 L 0.6875 -24.921875 Z M 19.96875 -24.921875 "/></g></g></g></g><g fill="#ffffff" fill-opacity="1"><g transform="translate(22.694127, 33.869123)"><g><path d="M 2.703125 0 L 2.703125 -26.34375 L 7.4375 -26.34375 L 7.4375 -16.34375 L 7.796875 -16.28125 C 8.421875 -17.195312 9.1875 -17.90625 10.09375 -18.40625 C 11 -18.90625 12.09375 -19.15625 13.375 -19.15625 C 17.519531 -19.15625 19.59375 -16.800781 19.59375 -12.09375 L 19.59375 0 L 14.875 0 L 14.875 -11.5 C 14.875 -12.789062 14.617188 -13.722656 14.109375 -14.296875 C 13.597656 -14.878906 12.800781 -15.171875 11.71875 -15.171875 C 10.40625 -15.171875 9.363281 -14.726562 8.59375 -13.84375 C 7.820312 -12.96875 7.4375 -11.597656 7.4375 -9.734375 L 7.4375 0 Z M 2.703125 0 "/></g></g></g><g fill="#ffffff" fill-opacity="1"><g transform="translate(44.710821, 33.869123)"><g><path d="M 2.703125 0 L 2.703125 -18.796875 L 7.296875 -18.796875 L 7.296875 -16 L 7.65625 -15.9375 C 8.101562 -16.976562 8.695312 -17.742188 9.4375 -18.234375 C 10.175781 -18.722656 11.078125 -18.96875 12.140625 -18.96875 C 13.203125 -18.96875 14.015625 -18.785156 14.578125 -18.421875 L 13.765625 -14.34375 L 13.40625 -14.28125 C 13.101562 -14.40625 12.804688 -14.492188 12.515625 -14.546875 C 12.234375 -14.609375 11.890625 -14.640625 11.484375 -14.640625 C 10.171875 -14.640625 9.164062 -14.175781 8.46875 -13.25 C 7.78125 -12.320312 7.4375 -10.835938 7.4375 -8.796875 L 7.4375 0 Z M 2.703125 0 "/></g></g></g><g fill="#ffffff" fill-opacity="1"><g transform="translate(59.451105, 33.869123)"><g><path d="M 18.578125 -8.328125 L 6.5 -8.328125 C 6.632812 -6.691406 7.097656 -5.5 7.890625 -4.75 C 8.679688 -4.007812 9.765625 -3.640625 11.140625 -3.640625 C 12.222656 -3.640625 13.097656 -3.84375 13.765625 -4.25 C 14.441406 -4.65625 14.984375 -5.265625 15.390625 -6.078125 L 15.75 -6.078125 L 18.890625 -4.078125 C 18.273438 -2.753906 17.347656 -1.679688 16.109375 -0.859375 C 14.867188 -0.046875 13.210938 0.359375 11.140625 0.359375 C 9.203125 0.359375 7.523438 -0.0078125 6.109375 -0.75 C 4.691406 -1.488281 3.597656 -2.585938 2.828125 -4.046875 C 2.066406 -5.503906 1.6875 -7.285156 1.6875 -9.390625 C 1.6875 -11.523438 2.085938 -13.328125 2.890625 -14.796875 C 3.703125 -16.265625 4.796875 -17.359375 6.171875 -18.078125 C 7.546875 -18.796875 9.09375 -19.15625 10.8125 -19.15625 C 13.46875 -19.15625 15.5 -18.453125 16.90625 -17.046875 C 18.320312 -15.640625 19.03125 -13.570312 19.03125 -10.84375 C 19.03125 -9.851562 19 -9.085938 18.9375 -8.546875 Z M 14.515625 -11.390625 C 14.472656 -12.816406 14.140625 -13.859375 13.515625 -14.515625 C 12.898438 -15.171875 12 -15.5 10.8125 -15.5 C 8.425781 -15.5 7.019531 -14.128906 6.59375 -11.390625 Z M 14.515625 -11.390625 "/></g></g></g><g fill="#ffffff" fill-opacity="1"><g transform="translate(79.883011, 33.869123)"><g><path d="M 18.578125 -8.328125 L 6.5 -8.328125 C 6.632812 -6.691406 7.097656 -5.5 7.890625 -4.75 C 8.679688 -4.007812 9.765625 -3.640625 11.140625 -3.640625 C 12.222656 -3.640625 13.097656 -3.84375 13.765625 -4.25 C 14.441406 -4.65625 14.984375 -5.265625 15.390625 -6.078125 L 15.75 -6.078125 L 18.890625 -4.078125 C 18.273438 -2.753906 17.347656 -1.679688 16.109375 -0.859375 C 14.867188 -0.046875 13.210938 0.359375 11.140625 0.359375 C 9.203125 0.359375 7.523438 -0.0078125 6.109375 -0.75 C 4.691406 -1.488281 3.597656 -2.585938 2.828125 -4.046875 C 2.066406 -5.503906 1.6875 -7.285156 1.6875 -9.390625 C 1.6875 -11.523438 2.085938 -13.328125 2.890625 -14.796875 C 3.703125 -16.265625 4.796875 -17.359375 6.171875 -18.078125 C 7.546875 -18.796875 9.09375 -19.15625 10.8125 -19.15625 C 13.46875 -19.15625 15.5 -18.453125 16.90625 -17.046875 C 18.320312 -15.640625 19.03125 -13.570312 19.03125 -10.84375 C 19.03125 -9.851562 19 -9.085938 18.9375 -8.546875 Z M 14.515625 -11.390625 C 14.472656 -12.816406 14.140625 -13.859375 13.515625 -14.515625 C 12.898438 -15.171875 12 -15.5 10.8125 -15.5 C 8.425781 -15.5 7.019531 -14.128906 6.59375 -11.390625 Z M 14.515625 -11.390625 "/></g></g></g><g fill="#ffffff" fill-opacity="1"><g transform="translate(100.314917, 33.869123)"><g><path d="M 8.734375 0.359375 C 6.617188 0.359375 4.859375 -0.0390625 3.453125 -0.84375 C 2.054688 -1.644531 1.039062 -2.722656 0.40625 -4.078125 L 3.1875 -7.453125 L 3.609375 -7.453125 C 4.066406 -6.359375 4.710938 -5.492188 5.546875 -4.859375 C 6.378906 -4.234375 7.347656 -3.921875 8.453125 -3.921875 C 9.691406 -3.921875 10.613281 -4.28125 11.21875 -5 C 11.820312 -5.71875 12.125 -6.890625 12.125 -8.515625 L 12.125 -24.921875 L 17.03125 -24.921875 L 17.03125 -8.4375 C 17.03125 -5.425781 16.34375 -3.207031 14.96875 -1.78125 C 13.601562 -0.351562 11.523438 0.359375 8.734375 0.359375 Z M 8.734375 0.359375 "/></g></g></g><g fill="#ffffff" fill-opacity="1"><g transform="translate(120.423042, 33.869123)"><g><path d="M 11.046875 0.359375 C 9.316406 0.359375 7.78125 0.144531 6.4375 -0.28125 C 5.09375 -0.707031 3.96875 -1.265625 3.0625 -1.953125 C 2.164062 -2.648438 1.476562 -3.414062 1 -4.25 L 3.71875 -7.546875 L 4.140625 -7.546875 C 4.890625 -6.429688 5.84375 -5.546875 7 -4.890625 C 8.15625 -4.234375 9.503906 -3.90625 11.046875 -3.90625 C 12.359375 -3.90625 13.347656 -4.179688 14.015625 -4.734375 C 14.691406 -5.296875 15.03125 -6.066406 15.03125 -7.046875 C 15.03125 -7.628906 14.921875 -8.117188 14.703125 -8.515625 C 14.492188 -8.921875 14.140625 -9.265625 13.640625 -9.546875 C 13.140625 -9.828125 12.460938 -10.070312 11.609375 -10.28125 L 8.40625 -11.015625 C 6.164062 -11.523438 4.492188 -12.375 3.390625 -13.5625 C 2.296875 -14.75 1.75 -16.289062 1.75 -18.1875 C 1.75 -19.59375 2.101562 -20.828125 2.8125 -21.890625 C 3.519531 -22.960938 4.546875 -23.796875 5.890625 -24.390625 C 7.234375 -24.984375 8.84375 -25.28125 10.71875 -25.28125 C 12.632812 -25.28125 14.273438 -25.023438 15.640625 -24.515625 C 17.015625 -24.015625 18.175781 -23.238281 19.125 -22.1875 L 16.6875 -18.84375 L 16.265625 -18.84375 C 15.554688 -19.582031 14.742188 -20.132812 13.828125 -20.5 C 12.921875 -20.875 11.882812 -21.0625 10.71875 -21.0625 C 9.363281 -21.0625 8.332031 -20.820312 7.625 -20.34375 C 6.925781 -19.875 6.578125 -19.21875 6.578125 -18.375 C 6.578125 -17.59375 6.820312 -16.96875 7.3125 -16.5 C 7.8125 -16.03125 8.671875 -15.664062 9.890625 -15.40625 L 13.15625 -14.71875 C 15.570312 -14.207031 17.328125 -13.34375 18.421875 -12.125 C 19.515625 -10.90625 20.0625 -9.3125 20.0625 -7.34375 C 20.0625 -5.789062 19.722656 -4.4375 19.046875 -3.28125 C 18.378906 -2.125 17.367188 -1.226562 16.015625 -0.59375 C 14.671875 0.0390625 13.015625 0.359375 11.046875 0.359375 Z M 11.046875 0.359375 "/></g></g></g></svg>