<svg xmlns="http://www.w3.org/2000/svg" xmlns:xlink="http://www.w3.org/1999/xlink" width="86" zoomAndPan="magnify" viewBox="0 0 64.5 43.499998" height="58" preserveAspectRatio="xMidYMid meet" version="1.0"><defs><clipPath id="7580e23c1e"><path d="M 14 12 L 43 12 L 43 43.003906 L 14 43.003906 Z M 14 12 " clip-rule="nonzero"/></clipPath><clipPath id="2bc8873de2"><path d="M 17 15 L 50 15 L 50 43.003906 L 17 43.003906 Z M 17 15 " clip-rule="nonzero"/></clipPath><clipPath id="2027683745"><path d="M 10.316406 19 L 43 19 L 43 43.003906 L 10.316406 43.003906 Z M 10.316406 19 " clip-rule="nonzero"/></clipPath><clipPath id="a3e967ec32"><path d="M 10.316406 12 L 40 12 L 40 43.003906 L 10.316406 43.003906 Z M 10.316406 12 " clip-rule="nonzero"/></clipPath><clipPath id="d021a7d4d7"><path d="M 22 0 L 54.0625 0 L 54.0625 30 L 22 30 Z M 22 0 " clip-rule="nonzero"/></clipPath><clipPath id="69e80dd331"><path d="M 10.316406 9 L 40 9 L 40 38 L 10.316406 38 Z M 10.316406 9 " clip-rule="nonzero"/></clipPath><clipPath id="d2c72fcd99"><path d="M 10.316406 9 L 32 9 L 32 43.003906 L 10.316406 43.003906 Z M 10.316406 9 " clip-rule="nonzero"/></clipPath><clipPath id="b7243170c3"><path d="M 10.316406 0 L 30 0 L 30 35 L 10.316406 35 Z M 10.316406 0 " clip-rule="nonzero"/></clipPath><clipPath id="9aa463883e"><path d="M 10.316406 0 L 37 0 L 37 27 L 10.316406 27 Z M 10.316406 0 " clip-rule="nonzero"/></clipPath><clipPath id="11a600de03"><path d="M 10.316406 2 L 37 2 L 37 35 L 10.316406 35 Z M 10.316406 2 " clip-rule="nonzero"/></clipPath><clipPath id="8dc7862a41"><path d="M 10.316406 0 L 45 0 L 45 20 L 10.316406 20 Z M 10.316406 0 " clip-rule="nonzero"/></clipPath><clipPath id="91c2257c57"><path d="M 10.316406 0 L 37 0 L 37 27 L 10.316406 27 Z M 10.316406 0 " clip-rule="nonzero"/></clipPath><clipPath id="699b797cbe"><path d="M 10.316406 0 L 35 0 L 35 24 L 10.316406 24 Z M 10.316406 0 " clip-rule="nonzero"/></clipPath><clipPath id="3ec2e485b0"><path d="M 30 0 L 54.0625 0 L 54.0625 33 L 30 33 Z M 30 0 " clip-rule="nonzero"/></clipPath><clipPath id="697bf299dd"><path d="M 22 4 L 54.0625 4 L 54.0625 33 L 22 33 Z M 22 4 " clip-rule="nonzero"/></clipPath><clipPath id="fe4327699b"><path d="M 24 7 L 54.0625 7 L 54.0625 41 L 24 41 Z M 24 7 " clip-rule="nonzero"/></clipPath><clipPath id="a843e93071"><path d="M 19 0 L 54.0625 0 L 54.0625 23 L 19 23 Z M 19 0 " clip-rule="nonzero"/></clipPath></defs><path fill="#ffffff" d="M 22.050781 42.496094 L 11.683594 1.257812 L 52.695312 12.777344 " fill-opacity="1" fill-rule="nonzero"/><g clip-path="url(#7580e23c1e)"><path stroke-linecap="butt" transform="matrix(1.822798, 0, 0, 1.822798, 10.314631, 0)" fill="none" stroke-linejoin="miter" d="M 9.218002 13.590883 L 10.638809 19.248393 " stroke="#000000" stroke-width="0.48" stroke-opacity="1" stroke-miterlimit="10"/></g><path stroke-linecap="butt" transform="matrix(1.822798, 0, 0, 1.822798, 10.314631, 0)" fill="none" stroke-linejoin="miter" d="M 14.83051 15.180986 L 9.218002 13.590883 " stroke="#000000" stroke-width="0.48" stroke-opacity="1" stroke-miterlimit="10"/><g clip-path="url(#2bc8873de2)"><path stroke-linecap="butt" transform="matrix(1.822798, 0, 0, 1.822798, 10.314631, 0)" fill="none" stroke-linejoin="miter" d="M 10.638809 19.248393 L 14.83051 15.178843 " stroke="#000000" stroke-width="0.48" stroke-opacity="1" stroke-miterlimit="10"/></g><g clip-path="url(#2027683745)"><path stroke-linecap="butt" transform="matrix(1.822798, 0, 0, 1.822798, 10.314631, 0)" fill="none" stroke-linejoin="miter" d="M 10.638809 19.248393 L 5.024158 17.65829 " stroke="#000000" stroke-width="0.48" stroke-opacity="1" stroke-miterlimit="10"/><path stroke-linecap="butt" transform="matrix(1.822798, 0, 0, 1.822798, 10.314631, 0)" fill="none" stroke-linejoin="miter" d="M 5.024158 17.65829 L 6.447107 23.32223 L 10.638809 19.248393 " stroke="#000000" stroke-width="0.48" stroke-opacity="1" stroke-miterlimit="10"/></g><g clip-path="url(#a3e967ec32)"><path stroke-linecap="butt" transform="matrix(1.822798, 0, 0, 1.822798, 10.314631, 0)" fill="none" stroke-linejoin="miter" d="M 5.024158 17.65829 L 9.218002 13.590883 " stroke="#000000" stroke-width="0.48" stroke-opacity="1" stroke-miterlimit="10"/></g><path stroke-linecap="butt" transform="matrix(1.822798, 0, 0, 1.822798, 10.314631, 0)" fill="none" stroke-linejoin="miter" d="M 9.218002 13.590883 L 13.413989 9.517047 " stroke="#000000" stroke-width="0.48" stroke-opacity="1" stroke-miterlimit="10"/><g clip-path="url(#d021a7d4d7)"><path stroke-linecap="butt" transform="matrix(1.822798, 0, 0, 1.822798, 10.314631, 0)" fill="none" stroke-linejoin="miter" d="M 13.413989 9.517047 L 17.60569 5.44964 " stroke="#000000" stroke-width="0.48" stroke-opacity="1" stroke-miterlimit="10"/></g><path stroke-linecap="butt" transform="matrix(1.822798, 0, 0, 1.822798, 10.314631, 0)" fill="none" stroke-linejoin="miter" d="M 11.993182 3.859536 L 13.413989 9.517047 " stroke="#000000" stroke-width="0.48" stroke-opacity="1" stroke-miterlimit="10"/><path stroke-linecap="butt" transform="matrix(1.822798, 0, 0, 1.822798, 10.314631, 0)" fill="none" stroke-linejoin="miter" d="M 13.413989 9.517047 L 7.797195 7.93123 " stroke="#000000" stroke-width="0.48" stroke-opacity="1" stroke-miterlimit="10"/><path stroke-linecap="butt" transform="matrix(1.822798, 0, 0, 1.822798, 10.314631, 0)" fill="none" stroke-linejoin="miter" d="M 7.797195 7.93123 L 9.218002 13.590883 " stroke="#000000" stroke-width="0.48" stroke-opacity="1" stroke-miterlimit="10"/><g clip-path="url(#69e80dd331)"><path stroke-linecap="butt" transform="matrix(1.822798, 0, 0, 1.822798, 10.314631, 0)" fill="none" stroke-linejoin="miter" d="M 9.218002 13.590883 L 3.603351 12.00078 " stroke="#000000" stroke-width="0.48" stroke-opacity="1" stroke-miterlimit="10"/></g><g clip-path="url(#d2c72fcd99)"><path stroke-linecap="butt" transform="matrix(1.822798, 0, 0, 1.822798, 10.314631, 0)" fill="none" stroke-linejoin="miter" d="M 3.603351 12.00078 L 5.024158 17.65829 " stroke="#000000" stroke-width="0.48" stroke-opacity="1" stroke-miterlimit="10"/></g><g clip-path="url(#b7243170c3)"><path stroke-linecap="butt" transform="matrix(1.822798, 0, 0, 1.822798, 10.314631, 0)" fill="none" stroke-linejoin="miter" d="M 2.182544 6.341126 L 3.603351 12.00078 " stroke="#000000" stroke-width="0.48" stroke-opacity="1" stroke-miterlimit="10"/></g><g clip-path="url(#9aa463883e)"><path stroke-linecap="butt" transform="matrix(1.822798, 0, 0, 1.822798, 10.314631, 0)" fill="none" stroke-linejoin="miter" d="M 7.797195 7.93123 L 2.182544 6.341126 " stroke="#000000" stroke-width="0.48" stroke-opacity="1" stroke-miterlimit="10"/></g><g clip-path="url(#11a600de03)"><path stroke-linecap="butt" transform="matrix(1.822798, 0, 0, 1.822798, 10.314631, 0)" fill="none" stroke-linejoin="miter" d="M 3.603351 12.00078 L 7.797195 7.93123 " stroke="#000000" stroke-width="0.48" stroke-opacity="1" stroke-miterlimit="10"/></g><path stroke-linecap="butt" transform="matrix(1.822798, 0, 0, 1.822798, 10.314631, 0)" fill="none" stroke-linejoin="miter" d="M 7.797195 7.926944 L 11.993182 3.859536 " stroke="#000000" stroke-width="0.48" stroke-opacity="1" stroke-miterlimit="10"/><g clip-path="url(#8dc7862a41)"><path stroke-linecap="butt" transform="matrix(1.822798, 0, 0, 1.822798, 10.314631, 0)" fill="none" stroke-linejoin="miter" d="M 11.993182 3.859536 L 6.374245 2.269433 " stroke="#000000" stroke-width="0.48" stroke-opacity="1" stroke-miterlimit="10"/></g><g clip-path="url(#91c2257c57)"><path stroke-linecap="butt" transform="matrix(1.822798, 0, 0, 1.822798, 10.314631, 0)" fill="none" stroke-linejoin="miter" d="M 6.374245 2.269433 L 7.797195 7.926944 " stroke="#000000" stroke-width="0.48" stroke-opacity="1" stroke-miterlimit="10"/></g><g clip-path="url(#699b797cbe)"><path stroke-linecap="butt" transform="matrix(1.822798, 0, 0, 1.822798, 10.314631, 0)" fill="none" stroke-linejoin="miter" d="M 2.182544 6.341126 L 0.761738 0.67933 L 6.374245 2.269433 " stroke="#000000" stroke-width="0.48" stroke-opacity="1" stroke-miterlimit="10"/><path stroke-linecap="butt" transform="matrix(1.822798, 0, 0, 1.822798, 10.314631, 0)" fill="none" stroke-linejoin="miter" d="M 2.182544 6.341126 L 6.374245 2.269433 " stroke="#000000" stroke-width="0.48" stroke-opacity="1" stroke-miterlimit="10"/></g><g clip-path="url(#3ec2e485b0)"><path stroke-linecap="butt" transform="matrix(1.822798, 0, 0, 1.822798, 10.314631, 0)" fill="none" stroke-linejoin="miter" d="M 19.026497 11.10715 L 23.220341 7.039743 L 17.60569 5.44964 " stroke="#000000" stroke-width="0.48" stroke-opacity="1" stroke-miterlimit="10"/><path stroke-linecap="butt" transform="matrix(1.822798, 0, 0, 1.822798, 10.314631, 0)" fill="none" stroke-linejoin="miter" d="M 17.60569 5.44964 L 19.026497 11.10715 " stroke="#000000" stroke-width="0.48" stroke-opacity="1" stroke-miterlimit="10"/></g><g clip-path="url(#697bf299dd)"><path stroke-linecap="butt" transform="matrix(1.822798, 0, 0, 1.822798, 10.314631, 0)" fill="none" stroke-linejoin="miter" d="M 19.02864 11.10715 L 13.413989 9.517047 " stroke="#000000" stroke-width="0.48" stroke-opacity="1" stroke-miterlimit="10"/></g><path stroke-linecap="butt" transform="matrix(1.822798, 0, 0, 1.822798, 10.314631, 0)" fill="none" stroke-linejoin="miter" d="M 13.413989 9.517047 L 14.83051 15.180986 " stroke="#000000" stroke-width="0.48" stroke-opacity="1" stroke-miterlimit="10"/><g clip-path="url(#fe4327699b)"><path stroke-linecap="butt" transform="matrix(1.822798, 0, 0, 1.822798, 10.314631, 0)" fill="none" stroke-linejoin="miter" d="M 14.83051 15.178843 L 19.026497 11.10715 " stroke="#000000" stroke-width="0.48" stroke-opacity="1" stroke-miterlimit="10"/></g><g clip-path="url(#a843e93071)"><path stroke-linecap="butt" transform="matrix(1.822798, 0, 0, 1.822798, 10.314631, 0)" fill="none" stroke-linejoin="miter" d="M 17.60569 5.44964 L 11.993182 3.859536 " stroke="#000000" stroke-width="0.48" stroke-opacity="1" stroke-miterlimit="10"/></g></svg>