<svg xmlns="http://www.w3.org/2000/svg" xmlns:xlink="http://www.w3.org/1999/xlink" width="86" zoomAndPan="magnify" viewBox="0 0 64.5 43.499998" height="58" preserveAspectRatio="xMidYMid meet" version="1.0"><defs><clipPath id="5e56792c7c"><path d="M 10.5 0.890625 L 53.503906 0.890625 L 53.503906 43.003906 L 10.5 43.003906 Z M 10.5 0.890625 " clip-rule="nonzero"/></clipPath><clipPath id="efdcb0e54a"><path d="M 10.5 0.890625 L 53.503906 0.890625 L 53.503906 12 L 10.5 12 Z M 10.5 0.890625 " clip-rule="nonzero"/></clipPath><clipPath id="6b8046f836"><path d="M 13.761719 26.324219 L 18 26.324219 L 18 30.769531 L 13.761719 30.769531 Z M 13.761719 26.324219 " clip-rule="nonzero"/></clipPath></defs><g clip-path="url(#5e56792c7c)"><path fill="#5e94ff" d="M 15.902344 0.789062 C 12.863281 0.789062 10.398438 3.253906 10.398438 6.289062 L 10.398438 38.292969 C 10.398438 41.332031 12.863281 43.796875 15.902344 43.796875 L 47.90625 43.796875 C 50.941406 43.796875 53.40625 41.332031 53.40625 38.292969 L 53.40625 6.289062 C 53.40625 3.253906 50.941406 0.789062 47.90625 0.789062 Z M 15.902344 0.789062 " fill-opacity="1" fill-rule="nonzero"/></g><g clip-path="url(#efdcb0e54a)"><path fill="#4dc4ff" d="M 15.902344 0.789062 C 12.863281 0.789062 10.398438 3.253906 10.398438 6.289062 L 10.398438 10.289062 C 10.398438 11.121094 11.070312 11.792969 11.898438 11.792969 L 51.90625 11.792969 C 52.734375 11.792969 53.40625 11.121094 53.40625 10.289062 L 53.40625 6.289062 C 53.40625 3.253906 50.941406 0.789062 47.90625 0.789062 Z M 15.902344 0.789062 " fill-opacity="1" fill-rule="nonzero"/></g><path fill="#eceff1" d="M 33.402344 16.292969 C 33.402344 15.464844 34.074219 14.792969 34.902344 14.792969 L 45.90625 14.792969 C 46.734375 14.792969 47.40625 15.464844 47.40625 16.292969 C 47.40625 17.121094 46.734375 17.792969 45.90625 17.792969 L 36.402344 17.792969 L 36.402344 24.792969 L 45.90625 24.792969 C 46.734375 24.792969 47.40625 25.464844 47.40625 26.292969 L 47.40625 36.292969 C 47.40625 37.121094 46.734375 37.792969 45.90625 37.792969 L 34.902344 37.792969 C 34.074219 37.792969 33.402344 37.121094 33.402344 36.292969 C 33.402344 35.464844 34.074219 34.792969 34.902344 34.792969 L 44.40625 34.792969 L 44.40625 27.792969 L 34.902344 27.792969 C 34.074219 27.792969 33.402344 27.121094 33.402344 26.292969 Z M 33.402344 16.292969 " fill-opacity="1" fill-rule="evenodd"/><path fill="#eceff1" d="M 14.402344 16.292969 C 14.402344 15.464844 15.070312 14.792969 15.902344 14.792969 L 29.902344 14.792969 C 30.730469 14.792969 31.402344 15.464844 31.402344 16.292969 C 31.402344 17.121094 30.730469 17.792969 29.902344 17.792969 L 24.402344 17.792969 L 24.402344 36.292969 C 24.402344 37.121094 23.730469 37.792969 22.902344 37.792969 C 22.074219 37.792969 21.402344 37.121094 21.402344 36.292969 L 21.402344 17.792969 L 15.902344 17.792969 C 15.070312 17.792969 14.402344 17.121094 14.402344 16.292969 Z M 14.402344 16.292969 " fill-opacity="1" fill-rule="evenodd"/><g clip-path="url(#6b8046f836)"><path fill="#5e94ff" d="M 17.839844 28.363281 C 17.839844 28.632812 17.789062 28.890625 17.6875 29.140625 C 17.582031 29.390625 17.433594 29.613281 17.242188 29.804688 C 17.050781 29.996094 16.832031 30.140625 16.582031 30.246094 C 16.332031 30.347656 16.070312 30.402344 15.800781 30.402344 C 15.53125 30.402344 15.269531 30.347656 15.019531 30.246094 C 14.769531 30.140625 14.550781 29.996094 14.359375 29.804688 C 14.167969 29.613281 14.019531 29.390625 13.917969 29.140625 C 13.8125 28.890625 13.761719 28.632812 13.761719 28.363281 C 13.761719 28.089844 13.8125 27.832031 13.917969 27.582031 C 14.019531 27.332031 14.167969 27.109375 14.359375 26.917969 C 14.550781 26.730469 14.769531 26.582031 15.019531 26.476562 C 15.269531 26.375 15.53125 26.324219 15.800781 26.324219 C 16.070312 26.324219 16.332031 26.375 16.582031 26.476562 C 16.832031 26.582031 17.050781 26.730469 17.242188 26.917969 C 17.433594 27.109375 17.582031 27.332031 17.6875 27.582031 C 17.789062 27.832031 17.839844 28.089844 17.839844 28.363281 Z M 17.839844 28.363281 " fill-opacity="1" fill-rule="nonzero"/></g></svg>