<svg xmlns="http://www.w3.org/2000/svg" xmlns:xlink="http://www.w3.org/1999/xlink" width="262" zoomAndPan="magnify" viewBox="0 0 196.5 42" height="56" preserveAspectRatio="xMidYMid meet" version="1.0"><defs><g/></defs><g fill="#ffffff" fill-opacity="1"><g transform="translate(3.950024, 31.422067)"><g><path d="M 19.96875 -24.921875 L 19.96875 -20.78125 L 12.78125 -20.78125 L 12.78125 0 L 7.875 0 L 7.875 -20.78125 L 0.6875 -20.78125 L 0.6875 -24.921875 Z M 19.96875 -24.921875 "/></g></g><g transform="translate(24.611668, 31.422067)"><g><path d="M 4.15625 7.984375 C 3.351562 7.984375 2.625 7.921875 1.96875 7.796875 C 1.3125 7.671875 0.78125 7.503906 0.375 7.296875 L 1.125 3.484375 L 1.4375 3.375 C 1.71875 3.519531 2.066406 3.640625 2.484375 3.734375 C 2.910156 3.828125 3.34375 3.875 3.78125 3.875 C 4.539062 3.875 5.171875 3.769531 5.671875 3.5625 C 6.179688 3.363281 6.613281 3.035156 6.96875 2.578125 C 7.320312 2.117188 7.632812 1.484375 7.90625 0.671875 L 0.40625 -18.796875 L 5.359375 -18.796875 L 10.015625 -5.734375 L 10.4375 -5.734375 L 14.984375 -18.796875 L 19.78125 -18.796875 L 12.234375 1.171875 C 11.628906 2.785156 10.96875 4.082031 10.25 5.0625 C 9.53125 6.050781 8.675781 6.785156 7.6875 7.265625 C 6.707031 7.742188 5.53125 7.984375 4.15625 7.984375 Z M 4.15625 7.984375 "/></g></g><g transform="translate(44.795981, 31.422067)"><g><path d="M 2.703125 7.625 L 2.703125 -18.796875 L 7.4375 -18.796875 L 7.4375 -16.34375 L 7.796875 -16.28125 C 8.347656 -17.226562 9.085938 -17.941406 10.015625 -18.421875 C 10.953125 -18.910156 12.046875 -19.15625 13.296875 -19.15625 C 14.804688 -19.15625 16.125 -18.796875 17.25 -18.078125 C 18.382812 -17.367188 19.265625 -16.28125 19.890625 -14.8125 C 20.523438 -13.351562 20.84375 -11.546875 20.84375 -9.390625 C 20.84375 -7.242188 20.507812 -5.441406 19.84375 -3.984375 C 19.175781 -2.535156 18.253906 -1.445312 17.078125 -0.71875 C 15.898438 0 14.535156 0.359375 12.984375 0.359375 C 11.816406 0.359375 10.804688 0.164062 9.953125 -0.21875 C 9.097656 -0.613281 8.378906 -1.226562 7.796875 -2.0625 L 7.4375 -2 L 7.4375 7.625 Z M 11.671875 -3.640625 C 13.078125 -3.640625 14.144531 -4.097656 14.875 -5.015625 C 15.601562 -5.941406 15.96875 -7.398438 15.96875 -9.390625 C 15.96875 -11.378906 15.601562 -12.835938 14.875 -13.765625 C 14.144531 -14.691406 13.078125 -15.15625 11.671875 -15.15625 C 10.359375 -15.15625 9.3125 -14.675781 8.53125 -13.71875 C 7.757812 -12.757812 7.375 -11.316406 7.375 -9.390625 C 7.375 -7.472656 7.757812 -6.035156 8.53125 -5.078125 C 9.3125 -4.117188 10.359375 -3.640625 11.671875 -3.640625 Z M 11.671875 -3.640625 "/></g></g><g transform="translate(67.315809, 31.422067)"><g><path d="M 18.578125 -8.328125 L 6.5 -8.328125 C 6.632812 -6.691406 7.097656 -5.5 7.890625 -4.75 C 8.679688 -4.007812 9.765625 -3.640625 11.140625 -3.640625 C 12.222656 -3.640625 13.097656 -3.84375 13.765625 -4.25 C 14.441406 -4.65625 14.984375 -5.265625 15.390625 -6.078125 L 15.75 -6.078125 L 18.890625 -4.078125 C 18.273438 -2.753906 17.347656 -1.679688 16.109375 -0.859375 C 14.867188 -0.046875 13.210938 0.359375 11.140625 0.359375 C 9.203125 0.359375 7.523438 -0.0078125 6.109375 -0.75 C 4.691406 -1.488281 3.597656 -2.585938 2.828125 -4.046875 C 2.066406 -5.503906 1.6875 -7.285156 1.6875 -9.390625 C 1.6875 -11.523438 2.085938 -13.328125 2.890625 -14.796875 C 3.703125 -16.265625 4.796875 -17.359375 6.171875 -18.078125 C 7.546875 -18.796875 9.09375 -19.15625 10.8125 -19.15625 C 13.46875 -19.15625 15.5 -18.453125 16.90625 -17.046875 C 18.320312 -15.640625 19.03125 -13.570312 19.03125 -10.84375 C 19.03125 -9.851562 19 -9.085938 18.9375 -8.546875 Z M 14.515625 -11.390625 C 14.472656 -12.816406 14.140625 -13.859375 13.515625 -14.515625 C 12.898438 -15.171875 12 -15.5 10.8125 -15.5 C 8.425781 -15.5 7.019531 -14.128906 6.59375 -11.390625 Z M 14.515625 -11.390625 "/></g></g><g transform="translate(87.755836, 31.422067)"><g><path d="M 8.796875 0.359375 C 7.515625 0.359375 6.335938 0.207031 5.265625 -0.09375 C 4.203125 -0.394531 3.289062 -0.804688 2.53125 -1.328125 C 1.769531 -1.859375 1.210938 -2.46875 0.859375 -3.15625 L 3.484375 -5.984375 L 3.828125 -5.984375 C 4.453125 -5.140625 5.191406 -4.503906 6.046875 -4.078125 C 6.898438 -3.660156 7.828125 -3.453125 8.828125 -3.453125 C 9.742188 -3.453125 10.4375 -3.617188 10.90625 -3.953125 C 11.375 -4.285156 11.609375 -4.757812 11.609375 -5.375 C 11.609375 -5.84375 11.4375 -6.238281 11.09375 -6.5625 C 10.757812 -6.894531 10.21875 -7.148438 9.46875 -7.328125 L 6.984375 -7.921875 C 5.117188 -8.367188 3.757812 -9.046875 2.90625 -9.953125 C 2.050781 -10.867188 1.625 -12.035156 1.625 -13.453125 C 1.625 -14.617188 1.921875 -15.632812 2.515625 -16.5 C 3.109375 -17.363281 3.945312 -18.019531 5.03125 -18.46875 C 6.125 -18.925781 7.390625 -19.15625 8.828125 -19.15625 C 10.523438 -19.15625 11.925781 -18.910156 13.03125 -18.421875 C 14.144531 -17.929688 15.015625 -17.28125 15.640625 -16.46875 L 13.125 -13.734375 L 12.78125 -13.734375 C 12.257812 -14.328125 11.671875 -14.757812 11.015625 -15.03125 C 10.359375 -15.300781 9.628906 -15.4375 8.828125 -15.4375 C 6.960938 -15.4375 6.03125 -14.859375 6.03125 -13.703125 C 6.03125 -13.210938 6.203125 -12.8125 6.546875 -12.5 C 6.898438 -12.195312 7.515625 -11.953125 8.390625 -11.765625 L 10.703125 -11.25 C 12.609375 -10.84375 14 -10.1875 14.875 -9.28125 C 15.757812 -8.375 16.203125 -7.160156 16.203125 -5.640625 C 16.203125 -4.453125 15.90625 -3.398438 15.3125 -2.484375 C 14.726562 -1.578125 13.878906 -0.875 12.765625 -0.375 C 11.648438 0.113281 10.328125 0.359375 8.796875 0.359375 Z M 8.796875 0.359375 "/></g></g><g transform="translate(105.093205, 31.422067)"><g><path d="M 10.953125 0.359375 C 9.140625 0.359375 7.535156 -0.015625 6.140625 -0.765625 C 4.742188 -1.523438 3.648438 -2.640625 2.859375 -4.109375 C 2.078125 -5.578125 1.6875 -7.335938 1.6875 -9.390625 C 1.6875 -11.460938 2.078125 -13.226562 2.859375 -14.6875 C 3.648438 -16.15625 4.738281 -17.265625 6.125 -18.015625 C 7.507812 -18.773438 9.09375 -19.15625 10.875 -19.15625 C 14.84375 -19.15625 17.382812 -17.71875 18.5 -14.84375 L 15.25 -12.53125 L 14.890625 -12.53125 C 14.503906 -13.414062 14 -14.070312 13.375 -14.5 C 12.757812 -14.9375 11.925781 -15.15625 10.875 -15.15625 C 9.507812 -15.15625 8.445312 -14.679688 7.6875 -13.734375 C 6.925781 -12.796875 6.546875 -11.347656 6.546875 -9.390625 C 6.546875 -7.460938 6.929688 -6.019531 7.703125 -5.0625 C 8.472656 -4.113281 9.554688 -3.640625 10.953125 -3.640625 C 11.984375 -3.640625 12.851562 -3.914062 13.5625 -4.46875 C 14.269531 -5.019531 14.773438 -5.816406 15.078125 -6.859375 L 15.4375 -6.890625 L 18.796875 -5.046875 C 18.316406 -3.453125 17.429688 -2.148438 16.140625 -1.140625 C 14.859375 -0.140625 13.128906 0.359375 10.953125 0.359375 Z M 10.953125 0.359375 "/></g></g><g transform="translate(124.476283, 31.422067)"><g><path d="M 2.703125 0 L 2.703125 -18.796875 L 7.296875 -18.796875 L 7.296875 -16 L 7.65625 -15.9375 C 8.101562 -16.976562 8.695312 -17.742188 9.4375 -18.234375 C 10.175781 -18.722656 11.078125 -18.96875 12.140625 -18.96875 C 13.203125 -18.96875 14.015625 -18.785156 14.578125 -18.421875 L 13.765625 -14.34375 L 13.40625 -14.28125 C 13.101562 -14.40625 12.804688 -14.492188 12.515625 -14.546875 C 12.234375 -14.609375 11.890625 -14.640625 11.484375 -14.640625 C 10.171875 -14.640625 9.164062 -14.175781 8.46875 -13.25 C 7.78125 -12.320312 7.4375 -10.835938 7.4375 -8.796875 L 7.4375 0 Z M 2.703125 0 "/></g></g><g transform="translate(139.222423, 31.422067)"><g><path d="M 5.0625 -21.046875 C 4.207031 -21.046875 3.515625 -21.300781 2.984375 -21.8125 C 2.453125 -22.332031 2.1875 -23.003906 2.1875 -23.828125 C 2.1875 -24.628906 2.453125 -25.289062 2.984375 -25.8125 C 3.515625 -26.332031 4.207031 -26.59375 5.0625 -26.59375 C 5.632812 -26.59375 6.140625 -26.472656 6.578125 -26.234375 C 7.023438 -25.992188 7.367188 -25.664062 7.609375 -25.25 C 7.859375 -24.832031 7.984375 -24.359375 7.984375 -23.828125 C 7.984375 -23.296875 7.859375 -22.816406 7.609375 -22.390625 C 7.367188 -21.972656 7.023438 -21.644531 6.578125 -21.40625 C 6.140625 -21.164062 5.632812 -21.046875 5.0625 -21.046875 Z M 2.703125 0 L 2.703125 -18.796875 L 7.4375 -18.796875 L 7.4375 0 Z M 2.703125 0 "/></g></g><g transform="translate(149.348675, 31.422067)"><g><path d="M 2.703125 7.625 L 2.703125 -18.796875 L 7.4375 -18.796875 L 7.4375 -16.34375 L 7.796875 -16.28125 C 8.347656 -17.226562 9.085938 -17.941406 10.015625 -18.421875 C 10.953125 -18.910156 12.046875 -19.15625 13.296875 -19.15625 C 14.804688 -19.15625 16.125 -18.796875 17.25 -18.078125 C 18.382812 -17.367188 19.265625 -16.28125 19.890625 -14.8125 C 20.523438 -13.351562 20.84375 -11.546875 20.84375 -9.390625 C 20.84375 -7.242188 20.507812 -5.441406 19.84375 -3.984375 C 19.175781 -2.535156 18.253906 -1.445312 17.078125 -0.71875 C 15.898438 0 14.535156 0.359375 12.984375 0.359375 C 11.816406 0.359375 10.804688 0.164062 9.953125 -0.21875 C 9.097656 -0.613281 8.378906 -1.226562 7.796875 -2.0625 L 7.4375 -2 L 7.4375 7.625 Z M 11.671875 -3.640625 C 13.078125 -3.640625 14.144531 -4.097656 14.875 -5.015625 C 15.601562 -5.941406 15.96875 -7.398438 15.96875 -9.390625 C 15.96875 -11.378906 15.601562 -12.835938 14.875 -13.765625 C 14.144531 -14.691406 13.078125 -15.15625 11.671875 -15.15625 C 10.359375 -15.15625 9.3125 -14.675781 8.53125 -13.71875 C 7.757812 -12.757812 7.375 -11.316406 7.375 -9.390625 C 7.375 -7.472656 7.757812 -6.035156 8.53125 -5.078125 C 9.3125 -4.117188 10.359375 -3.640625 11.671875 -3.640625 Z M 11.671875 -3.640625 "/></g></g><g transform="translate(171.868503, 31.422067)"><g><path d="M 12.96875 -4.484375 L 14.203125 -0.984375 C 13.691406 -0.566406 13.046875 -0.238281 12.265625 0 C 11.492188 0.238281 10.617188 0.359375 9.640625 0.359375 C 7.609375 0.359375 6.0625 -0.191406 5 -1.296875 C 3.945312 -2.410156 3.421875 -4.023438 3.421875 -6.140625 L 3.421875 -15.0625 L 0.5625 -15.0625 L 0.5625 -18.8125 L 3.421875 -18.8125 L 3.421875 -22.484375 L 8.140625 -23.25 L 8.140625 -18.8125 L 13.484375 -18.8125 L 13.484375 -15.0625 L 8.140625 -15.0625 L 8.140625 -6.484375 C 8.140625 -5.546875 8.332031 -4.863281 8.71875 -4.4375 C 9.113281 -4.007812 9.675781 -3.796875 10.40625 -3.796875 C 11.25 -3.796875 11.984375 -4.023438 12.609375 -4.484375 Z M 12.96875 -4.484375 "/></g></g></g></svg>