<svg xmlns="http://www.w3.org/2000/svg" xmlns:xlink="http://www.w3.org/1999/xlink" width="262" zoomAndPan="magnify" viewBox="0 0 196.5 42" height="56" preserveAspectRatio="xMidYMid meet" version="1.0"><defs><g/><clipPath id="eb95612c5a"><path d="M 2.039062 8 L 26 8 L 26 34 L 2.039062 34 Z M 2.039062 8 " clip-rule="nonzero"/></clipPath></defs><g clip-path="url(#eb95612c5a)"><g fill="#ffffff" fill-opacity="1"><g transform="translate(2.040697, 33.869123)"><g><path d="M 14.8125 0 L 8.859375 0 L 0.4375 -24.921875 L 5.671875 -24.921875 L 11.71875 -6.34375 L 12.15625 -6.34375 L 18.125 -24.921875 L 23.21875 -24.921875 Z M 14.8125 0 "/></g></g></g></g><g fill="#ffffff" fill-opacity="1"><g transform="translate(25.693305, 33.869123)"><g><path d="M 18.578125 -8.328125 L 6.5 -8.328125 C 6.632812 -6.691406 7.097656 -5.5 7.890625 -4.75 C 8.679688 -4.007812 9.765625 -3.640625 11.140625 -3.640625 C 12.222656 -3.640625 13.097656 -3.84375 13.765625 -4.25 C 14.441406 -4.65625 14.984375 -5.265625 15.390625 -6.078125 L 15.75 -6.078125 L 18.890625 -4.078125 C 18.273438 -2.753906 17.347656 -1.679688 16.109375 -0.859375 C 14.867188 -0.046875 13.210938 0.359375 11.140625 0.359375 C 9.203125 0.359375 7.523438 -0.0078125 6.109375 -0.75 C 4.691406 -1.488281 3.597656 -2.585938 2.828125 -4.046875 C 2.066406 -5.503906 1.6875 -7.285156 1.6875 -9.390625 C 1.6875 -11.523438 2.085938 -13.328125 2.890625 -14.796875 C 3.703125 -16.265625 4.796875 -17.359375 6.171875 -18.078125 C 7.546875 -18.796875 9.09375 -19.15625 10.8125 -19.15625 C 13.46875 -19.15625 15.5 -18.453125 16.90625 -17.046875 C 18.320312 -15.640625 19.03125 -13.570312 19.03125 -10.84375 C 19.03125 -9.851562 19 -9.085938 18.9375 -8.546875 Z M 14.515625 -11.390625 C 14.472656 -12.816406 14.140625 -13.859375 13.515625 -14.515625 C 12.898438 -15.171875 12 -15.5 10.8125 -15.5 C 8.425781 -15.5 7.019531 -14.128906 6.59375 -11.390625 Z M 14.515625 -11.390625 "/></g></g></g><g fill="#ffffff" fill-opacity="1"><g transform="translate(46.125211, 33.869123)"><g><path d="M 2.703125 0 L 2.703125 -18.796875 L 7.296875 -18.796875 L 7.296875 -16 L 7.65625 -15.9375 C 8.101562 -16.976562 8.695312 -17.742188 9.4375 -18.234375 C 10.175781 -18.722656 11.078125 -18.96875 12.140625 -18.96875 C 13.203125 -18.96875 14.015625 -18.785156 14.578125 -18.421875 L 13.765625 -14.34375 L 13.40625 -14.28125 C 13.101562 -14.40625 12.804688 -14.492188 12.515625 -14.546875 C 12.234375 -14.609375 11.890625 -14.640625 11.484375 -14.640625 C 10.171875 -14.640625 9.164062 -14.175781 8.46875 -13.25 C 7.78125 -12.320312 7.4375 -10.835938 7.4375 -8.796875 L 7.4375 0 Z M 2.703125 0 "/></g></g></g><g fill="#ffffff" fill-opacity="1"><g transform="translate(60.865495, 33.869123)"><g><path d="M 10.953125 0.359375 C 9.140625 0.359375 7.535156 -0.015625 6.140625 -0.765625 C 4.742188 -1.523438 3.648438 -2.640625 2.859375 -4.109375 C 2.078125 -5.578125 1.6875 -7.335938 1.6875 -9.390625 C 1.6875 -11.460938 2.078125 -13.226562 2.859375 -14.6875 C 3.648438 -16.15625 4.738281 -17.265625 6.125 -18.015625 C 7.507812 -18.773438 9.09375 -19.15625 10.875 -19.15625 C 14.84375 -19.15625 17.382812 -17.71875 18.5 -14.84375 L 15.25 -12.53125 L 14.890625 -12.53125 C 14.503906 -13.414062 14 -14.070312 13.375 -14.5 C 12.757812 -14.9375 11.925781 -15.15625 10.875 -15.15625 C 9.507812 -15.15625 8.445312 -14.679688 7.6875 -13.734375 C 6.925781 -12.796875 6.546875 -11.347656 6.546875 -9.390625 C 6.546875 -7.460938 6.929688 -6.019531 7.703125 -5.0625 C 8.472656 -4.113281 9.554688 -3.640625 10.953125 -3.640625 C 11.984375 -3.640625 12.851562 -3.914062 13.5625 -4.46875 C 14.269531 -5.019531 14.773438 -5.816406 15.078125 -6.859375 L 15.4375 -6.890625 L 18.796875 -5.046875 C 18.316406 -3.453125 17.429688 -2.148438 16.140625 -1.140625 C 14.859375 -0.140625 13.128906 0.359375 10.953125 0.359375 Z M 10.953125 0.359375 "/></g></g></g><g fill="#ffffff" fill-opacity="1"><g transform="translate(80.240873, 33.869123)"><g><path d="M 18.578125 -8.328125 L 6.5 -8.328125 C 6.632812 -6.691406 7.097656 -5.5 7.890625 -4.75 C 8.679688 -4.007812 9.765625 -3.640625 11.140625 -3.640625 C 12.222656 -3.640625 13.097656 -3.84375 13.765625 -4.25 C 14.441406 -4.65625 14.984375 -5.265625 15.390625 -6.078125 L 15.75 -6.078125 L 18.890625 -4.078125 C 18.273438 -2.753906 17.347656 -1.679688 16.109375 -0.859375 C 14.867188 -0.046875 13.210938 0.359375 11.140625 0.359375 C 9.203125 0.359375 7.523438 -0.0078125 6.109375 -0.75 C 4.691406 -1.488281 3.597656 -2.585938 2.828125 -4.046875 C 2.066406 -5.503906 1.6875 -7.285156 1.6875 -9.390625 C 1.6875 -11.523438 2.085938 -13.328125 2.890625 -14.796875 C 3.703125 -16.265625 4.796875 -17.359375 6.171875 -18.078125 C 7.546875 -18.796875 9.09375 -19.15625 10.8125 -19.15625 C 13.46875 -19.15625 15.5 -18.453125 16.90625 -17.046875 C 18.320312 -15.640625 19.03125 -13.570312 19.03125 -10.84375 C 19.03125 -9.851562 19 -9.085938 18.9375 -8.546875 Z M 14.515625 -11.390625 C 14.472656 -12.816406 14.140625 -13.859375 13.515625 -14.515625 C 12.898438 -15.171875 12 -15.5 10.8125 -15.5 C 8.425781 -15.5 7.019531 -14.128906 6.59375 -11.390625 Z M 14.515625 -11.390625 "/></g></g></g><g fill="#ffffff" fill-opacity="1"><g transform="translate(100.672779, 33.869123)"><g><path d="M 7.8125 0.359375 C 6.113281 0.359375 4.816406 -0.0976562 3.921875 -1.015625 C 3.035156 -1.929688 2.59375 -3.320312 2.59375 -5.1875 L 2.59375 -26.34375 L 7.3125 -26.34375 L 7.3125 -5.375 C 7.3125 -4.21875 7.789062 -3.640625 8.75 -3.640625 C 9.019531 -3.640625 9.304688 -3.6875 9.609375 -3.78125 L 9.84375 -3.71875 L 10.28125 -0.078125 C 10.019531 0.0546875 9.671875 0.160156 9.234375 0.234375 C 8.804688 0.316406 8.332031 0.359375 7.8125 0.359375 Z M 7.8125 0.359375 "/></g></g></g></svg>