<svg xmlns="http://www.w3.org/2000/svg" xmlns:xlink="http://www.w3.org/1999/xlink" width="86" zoomAndPan="magnify" viewBox="0 0 64.5 43.499998" height="58" preserveAspectRatio="xMidYMid meet" version="1.0"><defs><clipPath id="423f1500e6"><path d="M 6.730469 0 L 57.152344 0 L 57.152344 43 L 6.730469 43 Z M 6.730469 0 " clip-rule="nonzero"/></clipPath></defs><g clip-path="url(#423f1500e6)"><path fill="#ffffff" d="M 54.519531 42.875 L 9.367188 42.875 C 8.914062 42.875 8.492188 42.761719 8.101562 42.53125 C 7.710938 42.304688 7.40625 41.992188 7.183594 41.597656 C 6.960938 41.203125 6.851562 40.78125 6.859375 40.328125 C 6.863281 39.875 6.984375 39.453125 7.214844 39.066406 L 29.792969 1.351562 C 29.902344 1.167969 30.035156 0.996094 30.191406 0.847656 C 30.347656 0.695312 30.519531 0.566406 30.707031 0.457031 C 30.894531 0.351562 31.09375 0.269531 31.304688 0.214844 C 31.511719 0.160156 31.726562 0.132812 31.941406 0.132812 C 32.160156 0.132812 32.371094 0.160156 32.582031 0.214844 C 32.792969 0.269531 32.988281 0.351562 33.179688 0.457031 C 33.367188 0.566406 33.539062 0.695312 33.695312 0.847656 C 33.847656 0.996094 33.980469 1.167969 34.09375 1.351562 L 56.671875 39.066406 C 56.902344 39.453125 57.023438 39.875 57.027344 40.328125 C 57.03125 40.78125 56.925781 41.203125 56.703125 41.597656 C 56.480469 41.992188 56.171875 42.304688 55.78125 42.53125 C 55.390625 42.761719 54.972656 42.875 54.519531 42.875 Z M 13.796875 37.84375 L 50.089844 37.84375 L 31.941406 7.53125 Z M 13.796875 37.84375 " fill-opacity="1" fill-rule="nonzero"/></g></svg>