<svg xmlns="http://www.w3.org/2000/svg" xmlns:xlink="http://www.w3.org/1999/xlink" width="262" zoomAndPan="magnify" viewBox="0 0 196.5 42" height="56" preserveAspectRatio="xMidYMid meet" version="1.0"><defs><g/></defs><g fill="#ffffff" fill-opacity="1"><g transform="translate(2.040697, 33.588374)"><g><path d="M 19.140625 0 L 1.015625 0 L 1.015625 -4.3125 L 13.40625 -20.265625 L 13.28125 -20.609375 L 1.5 -20.609375 L 1.5 -24.703125 L 19.03125 -24.703125 L 19.03125 -20.390625 L 6.640625 -4.4375 L 6.765625 -4.09375 L 19.140625 -4.09375 Z M 19.140625 0 "/></g></g></g><g fill="#ffffff" fill-opacity="1"><g transform="translate(22.218735, 33.588374)"><g><path d="M 10.828125 0.359375 C 9.003906 0.359375 7.398438 -0.015625 6.015625 -0.765625 C 4.640625 -1.515625 3.570312 -2.613281 2.8125 -4.0625 C 2.050781 -5.507812 1.671875 -7.257812 1.671875 -9.3125 C 1.671875 -11.363281 2.050781 -13.113281 2.8125 -14.5625 C 3.570312 -16.019531 4.640625 -17.125 6.015625 -17.875 C 7.398438 -18.625 9.003906 -19 10.828125 -19 C 12.648438 -19 14.25 -18.625 15.625 -17.875 C 17.007812 -17.125 18.085938 -16.019531 18.859375 -14.5625 C 19.628906 -13.113281 20.015625 -11.363281 20.015625 -9.3125 C 20.015625 -7.257812 19.628906 -5.507812 18.859375 -4.0625 C 18.085938 -2.613281 17.007812 -1.515625 15.625 -0.765625 C 14.25 -0.015625 12.648438 0.359375 10.828125 0.359375 Z M 10.828125 -3.609375 C 13.722656 -3.609375 15.171875 -5.507812 15.171875 -9.3125 C 15.171875 -11.28125 14.796875 -12.722656 14.046875 -13.640625 C 13.304688 -14.554688 12.234375 -15.015625 10.828125 -15.015625 C 7.929688 -15.015625 6.484375 -13.113281 6.484375 -9.3125 C 6.484375 -5.507812 7.929688 -3.609375 10.828125 -3.609375 Z M 10.828125 -3.609375 "/></g></g></g><g fill="#ffffff" fill-opacity="1"><g transform="translate(43.883931, 33.588374)"><g><path d="M 9.203125 0.359375 C 7.734375 0.359375 6.429688 0 5.296875 -0.71875 C 4.160156 -1.4375 3.269531 -2.519531 2.625 -3.96875 C 1.988281 -5.414062 1.671875 -7.195312 1.671875 -9.3125 C 1.671875 -11.4375 2 -13.222656 2.65625 -14.671875 C 3.320312 -16.117188 4.234375 -17.203125 5.390625 -17.921875 C 6.554688 -18.640625 7.910156 -19 9.453125 -19 C 10.609375 -19 11.609375 -18.796875 12.453125 -18.390625 C 13.304688 -17.992188 14.03125 -17.375 14.625 -16.53125 L 14.96875 -16.609375 L 14.96875 -26.125 L 19.65625 -26.125 L 19.65625 0 L 14.96875 0 L 14.96875 -2.421875 L 14.625 -2.484375 C 14.101562 -1.609375 13.390625 -0.914062 12.484375 -0.40625 C 11.585938 0.101562 10.492188 0.359375 9.203125 0.359375 Z M 10.734375 -3.609375 C 12.046875 -3.609375 13.082031 -4.078125 13.84375 -5.015625 C 14.613281 -5.960938 15 -7.394531 15 -9.3125 C 15 -11.226562 14.613281 -12.65625 13.84375 -13.59375 C 13.082031 -14.539062 12.046875 -15.015625 10.734375 -15.015625 C 9.359375 -15.015625 8.304688 -14.554688 7.578125 -13.640625 C 6.847656 -12.722656 6.484375 -11.28125 6.484375 -9.3125 C 6.484375 -7.351562 6.847656 -5.910156 7.578125 -4.984375 C 8.304688 -4.066406 9.359375 -3.609375 10.734375 -3.609375 Z M 10.734375 -3.609375 "/></g></g></g></svg>